<?xml version="1.0" encoding="utf-8"?>
<!-- Generator: Adobe Illustrator 27.7.0, SVG Export Plug-In . SVG Version: 6.00 Build 0)  -->
<svg version="1.1" id="Layer_1" xmlns="http://www.w3.org/2000/svg" xmlns:xlink="http://www.w3.org/1999/xlink" x="0px" y="0px"
	 viewBox="0 0 1080 1080" style="enable-background:new 0 0 1080 1080;" xml:space="preserve">
<style type="text/css">
	.st0{clip-path:url(#SVGID_00000058548885990729294940000004340842353526340493_);}
	.st1{clip-path:url(#SVGID_00000070109153757847486010000015463039772404192441_);}
	.st2{clip-path:url(#SVGID_00000155113228553604143730000015005261354691073424_);}
	.st3{clip-path:url(#SVGID_00000165199434618729919430000014133294199454539155_);}
	.st4{fill:none;stroke:#000000;stroke-width:22;}
	.st5{fill:none;stroke:#000000;stroke-width:16;stroke-miterlimit:4;}
	.st6{fill:none;stroke:#000000;stroke-width:16;}
</style>
<g>
	<defs>
		<rect id="SVGID_1_" x="456.1" y="928.7" width="135.7" height="135.7"/>
	</defs>
	<clipPath id="SVGID_00000164503293222459756840000005179483209633637270_">
		<use xlink:href="#SVGID_1_"  style="overflow:visible;"/>
	</clipPath>
	<g style="clip-path:url(#SVGID_00000164503293222459756840000005179483209633637270_);">
		<g>
			<defs>
				<path id="SVGID_00000087389686734810348720000015457585939997288341_" d="M524,1064.3c37.5,0,67.8-30.4,67.8-67.8
					c0-37.5-30.4-67.8-67.8-67.8c-37.5,0-67.8,30.4-67.8,67.8C456.1,1034,486.5,1064.3,524,1064.3z"/>
			</defs>
			<clipPath id="SVGID_00000043440563466962845340000007543303923566676100_">
				<use xlink:href="#SVGID_00000087389686734810348720000015457585939997288341_"  style="overflow:visible;"/>
			</clipPath>
			<g style="clip-path:url(#SVGID_00000043440563466962845340000007543303923566676100_);">
				<path d="M591.8,1064.3H456.1V928.7h135.7V1064.3z"/>
			</g>
		</g>
	</g>
</g>
<g>
	<defs>
		<rect id="SVGID_00000027579990237866095570000005166358884307824026_" x="370.5" y="23.8" width="307" height="307"/>
	</defs>
	<clipPath id="SVGID_00000043438453078587805910000007147429713041445023_">
		<use xlink:href="#SVGID_00000027579990237866095570000005166358884307824026_"  style="overflow:visible;"/>
	</clipPath>
	<g style="clip-path:url(#SVGID_00000043438453078587805910000007147429713041445023_);">
		<g>
			<defs>
				<path id="SVGID_00000075125182908162211410000008363964369926440889_" d="M524,330.8c84.8,0,153.5-68.7,153.5-153.5
					c0-84.8-68.7-153.5-153.5-153.5c-84.8,0-153.5,68.7-153.5,153.5C370.5,262.1,439.2,330.8,524,330.8z"/>
			</defs>
			<clipPath id="SVGID_00000041256480916675408050000013631165863789606326_">
				<use xlink:href="#SVGID_00000075125182908162211410000008363964369926440889_"  style="overflow:visible;"/>
			</clipPath>
			<g style="clip-path:url(#SVGID_00000041256480916675408050000013631165863789606326_);">
				<path class="st4" d="M524,330.8c84.8,0,153.5-68.7,153.5-153.5c0-84.8-68.7-153.5-153.5-153.5c-84.8,0-153.5,68.7-153.5,153.5
					C370.5,262.1,439.2,330.8,524,330.8z"/>
			</g>
		</g>
	</g>
</g>
<path class="st5" d="M526,928.7l-2-904.9"/>
<path class="st6" d="M677.5,177.3h-307"/>
</svg>
