<svg xmlns="http://www.w3.org/2000/svg" xmlns:xlink="http://www.w3.org/1999/xlink" width="1080" zoomAndPan="magnify" viewBox="0 0 810 809.999993" height="1080" preserveAspectRatio="xMidYMid meet" version="1.0"><defs><clipPath id="c3097ca80f"><path d="M 355.253906 708.238281 L 457.007812 708.238281 L 457.007812 809.992188 L 355.253906 809.992188 Z M 355.253906 708.238281 " clip-rule="nonzero"/></clipPath><clipPath id="3e2028dfe5"><path d="M 406.132812 809.992188 C 434.230469 809.992188 457.007812 787.210938 457.007812 759.113281 C 457.007812 731.015625 434.230469 708.238281 406.132812 708.238281 C 378.035156 708.238281 355.253906 731.015625 355.253906 759.113281 C 355.253906 787.210938 378.035156 809.992188 406.132812 809.992188 Z M 406.132812 809.992188 " clip-rule="nonzero"/></clipPath><clipPath id="9024668444"><path d="M 337.15625 0.078125 L 472.90625 0.078125 L 472.90625 135.828125 L 337.15625 135.828125 Z M 337.15625 0.078125 " clip-rule="nonzero"/></clipPath><clipPath id="e6e28efd55"><path d="M 404.996094 135.828125 C 442.5 135.828125 472.90625 105.425781 472.90625 67.917969 C 472.90625 30.414062 442.5 0.0078125 404.996094 0.0078125 C 367.488281 0.0078125 337.085938 30.414062 337.085938 67.917969 C 337.085938 105.425781 367.488281 135.828125 404.996094 135.828125 Z M 404.996094 135.828125 " clip-rule="nonzero"/></clipPath></defs><g clip-path="url(#c3097ca80f)"><g clip-path="url(#3e2028dfe5)"><path fill="#000000" d="M 457.007812 809.992188 L 355.253906 809.992188 L 355.253906 708.238281 L 457.007812 708.238281 Z M 457.007812 809.992188 " fill-opacity="1" fill-rule="nonzero"/></g></g><g clip-path="url(#9024668444)"><g clip-path="url(#e6e28efd55)"><path stroke-linecap="butt" transform="matrix(-0.75, 0, 0, -0.75, 472.905196, 135.829993)" fill="none" stroke-linejoin="miter" d="M 90.545474 0.00249089 C 40.540263 0.00249089 -0.00140572 40.538951 -0.00140572 90.54937 C -0.00140572 140.554581 40.540263 181.09625 90.545474 181.09625 C 140.555893 181.09625 181.092353 140.554581 181.092353 90.54937 C 181.092353 40.538951 140.555893 0.00249089 90.545474 0.00249089 Z M 90.545474 0.00249089 " stroke="#000000" stroke-width="22" stroke-opacity="1" stroke-miterlimit="4"/></g></g><path stroke-linecap="butt" transform="matrix(-0.00120899, -0.749999, 0.749999, -0.00120899, 400.138723, 708.255512)" fill="none" stroke-linejoin="miter" d="M -0.000341842 8.002546 L 944.318659 7.998734 " stroke="#000000" stroke-width="16" stroke-opacity="1" stroke-miterlimit="4"/><path stroke-linecap="butt" transform="matrix(-0.75, -0.0000525588, 0.0000525588, -0.75, 472.903492, 73.9246)" fill="none" stroke-linejoin="miter" d="M 0.00209113 7.998426 L 171.684392 8.002019 " stroke="#000000" stroke-width="16" stroke-opacity="1" stroke-miterlimit="4"/></svg>