<svg xmlns="http://www.w3.org/2000/svg" xmlns:xlink="http://www.w3.org/1999/xlink" width="1080" zoomAndPan="magnify" viewBox="0 0 810 809.999993" height="1080" preserveAspectRatio="xMidYMid meet" version="1.0"><defs><clipPath id="a910c64aef"><path d="M 342.105469 17.851562 L 443.859375 17.851562 L 443.859375 119.601562 L 342.105469 119.601562 Z M 342.105469 17.851562 " clip-rule="nonzero"/></clipPath><clipPath id="e872732208"><path d="M 392.980469 17.851562 C 364.882812 17.851562 342.105469 40.628906 342.105469 68.726562 C 342.105469 96.824219 364.882812 119.601562 392.980469 119.601562 C 421.078125 119.601562 443.859375 96.824219 443.859375 68.726562 C 443.859375 40.628906 421.078125 17.851562 392.980469 17.851562 Z M 392.980469 17.851562 " clip-rule="nonzero"/></clipPath><clipPath id="8716625af6"><path d="M 277.871094 568.035156 L 508.085938 568.035156 L 508.085938 798.25 L 277.871094 798.25 Z M 277.871094 568.035156 " clip-rule="nonzero"/></clipPath><clipPath id="b09dfd78a3"><path d="M 392.980469 568.035156 C 329.40625 568.035156 277.871094 619.570312 277.871094 683.144531 C 277.871094 746.714844 329.40625 798.25 392.980469 798.25 C 456.550781 798.25 508.085938 746.714844 508.085938 683.144531 C 508.085938 619.570312 456.550781 568.035156 392.980469 568.035156 Z M 392.980469 568.035156 " clip-rule="nonzero"/></clipPath></defs><g clip-path="url(#a910c64aef)"><g clip-path="url(#e872732208)"><path fill="#000000" d="M 342.105469 17.851562 L 443.859375 17.851562 L 443.859375 119.601562 L 342.105469 119.601562 Z M 342.105469 17.851562 " fill-opacity="1" fill-rule="nonzero"/></g></g><g clip-path="url(#8716625af6)"><g clip-path="url(#b09dfd78a3)"><path stroke-linecap="butt" transform="matrix(0.75, 0, 0, 0.75, 277.872645, 568.035519)" fill="none" stroke-linejoin="miter" d="M 153.477106 -0.000484231 C 68.711477 -0.000484231 -0.00206796 68.713061 -0.00206796 153.47869 C -0.00206796 238.239111 68.711477 306.952656 153.477106 306.952656 C 238.237527 306.952656 306.951072 238.239111 306.951072 153.47869 C 306.951072 68.713061 238.237527 -0.000484231 153.477106 -0.000484231 Z M 153.477106 -0.000484231 " stroke="#000000" stroke-width="22" stroke-opacity="1" stroke-miterlimit="4"/></g></g><path stroke-linecap="butt" transform="matrix(0.0016577, 0.749998, -0.749998, 0.0016577, 397.477952, 119.593864)" fill="none" stroke-linejoin="miter" d="M -0.00221375 8.001867 L 904.869824 8.001873 " stroke="#000000" stroke-width="16" stroke-opacity="1" stroke-miterlimit="4"/><path stroke-linecap="butt" transform="matrix(0.75, 0, 0, 0.75, 277.872645, 677.144626)" fill="none" stroke-linejoin="miter" d="M -0.00206796 7.999874 L 306.956281 7.999874 " stroke="#000000" stroke-width="16" stroke-opacity="1" stroke-miterlimit="4"/></svg>