<svg xmlns="http://www.w3.org/2000/svg" xmlns:xlink="http://www.w3.org/1999/xlink" width="1080" zoomAndPan="magnify" viewBox="0 0 810 809.999993" height="1080" preserveAspectRatio="xMidYMid meet" version="1.0"><defs><clipPath id="d06fcf1e50"><path d="M 355.253906 708.238281 L 457.007812 708.238281 L 457.007812 809.992188 L 355.253906 809.992188 Z M 355.253906 708.238281 " clip-rule="nonzero"/></clipPath><clipPath id="d7645cc747"><path d="M 406.132812 809.992188 C 434.230469 809.992188 457.007812 787.210938 457.007812 759.113281 C 457.007812 731.015625 434.230469 708.238281 406.132812 708.238281 C 378.035156 708.238281 355.253906 731.015625 355.253906 759.113281 C 355.253906 787.210938 378.035156 809.992188 406.132812 809.992188 Z M 406.132812 809.992188 " clip-rule="nonzero"/></clipPath><clipPath id="3c365a0f50"><path d="M 337.15625 0.078125 L 472.90625 0.078125 L 472.90625 135.828125 L 337.15625 135.828125 Z M 337.15625 0.078125 " clip-rule="nonzero"/></clipPath><clipPath id="f1f0032e2e"><path d="M 404.996094 135.828125 C 442.5 135.828125 472.90625 105.425781 472.90625 67.917969 C 472.90625 30.414062 442.5 0.0078125 404.996094 0.0078125 C 367.488281 0.0078125 337.085938 30.414062 337.085938 67.917969 C 337.085938 105.425781 367.488281 135.828125 404.996094 135.828125 Z M 404.996094 135.828125 " clip-rule="nonzero"/></clipPath><clipPath id="8f238ca6ec"><path d="M 349.972656 696.53125 L 463.433594 696.53125 L 463.433594 809.992188 L 349.972656 809.992188 Z M 349.972656 696.53125 " clip-rule="nonzero"/></clipPath><clipPath id="c34b7b8472"><path d="M 406.703125 809.992188 C 438.035156 809.992188 463.433594 784.59375 463.433594 753.261719 C 463.433594 721.929688 438.035156 696.53125 406.703125 696.53125 C 375.371094 696.53125 349.972656 721.929688 349.972656 753.261719 C 349.972656 784.59375 375.371094 809.992188 406.703125 809.992188 Z M 406.703125 809.992188 " clip-rule="nonzero"/></clipPath><clipPath id="67cd7153b2"><path d="M 364.898438 711.457031 L 448.523438 711.457031 L 448.523438 795.082031 L 364.898438 795.082031 Z M 364.898438 711.457031 " clip-rule="nonzero"/></clipPath><clipPath id="e17a8c53a0"><path d="M 406.710938 795.082031 C 429.804688 795.082031 448.523438 776.363281 448.523438 753.269531 C 448.523438 730.179688 429.804688 711.457031 406.710938 711.457031 C 383.617188 711.457031 364.898438 730.179688 364.898438 753.269531 C 364.898438 776.363281 383.617188 795.082031 406.710938 795.082031 Z M 406.710938 795.082031 " clip-rule="nonzero"/></clipPath><clipPath id="f517c64214"><path d="M 349.183594 12.003906 L 460.804688 12.003906 L 460.804688 123.625 L 349.183594 123.625 Z M 349.183594 12.003906 " clip-rule="nonzero"/></clipPath><clipPath id="534aa392c7"><path d="M 404.992188 123.625 C 435.816406 123.625 460.804688 98.636719 460.804688 67.816406 C 460.804688 36.992188 435.816406 12.003906 404.992188 12.003906 C 374.171875 12.003906 349.183594 36.992188 349.183594 67.816406 C 349.183594 98.636719 374.171875 123.625 404.992188 123.625 Z M 404.992188 123.625 " clip-rule="nonzero"/></clipPath><clipPath id="f6930f6794"><path d="M 345.410156 8.335938 L 464.589844 8.335938 L 464.589844 127.515625 L 345.410156 127.515625 Z M 345.410156 8.335938 " clip-rule="nonzero"/></clipPath><clipPath id="ffda3e97b9"><path d="M 405 127.515625 C 437.910156 127.515625 464.589844 100.835938 464.589844 67.925781 C 464.589844 35.015625 437.910156 8.335938 405 8.335938 C 372.085938 8.335938 345.410156 35.015625 345.410156 67.925781 C 345.410156 100.835938 372.085938 127.515625 405 127.515625 Z M 405 127.515625 " clip-rule="nonzero"/></clipPath><clipPath id="8ef7d94105"><path d="M 360.15625 706.714844 L 453.257812 706.714844 L 453.257812 799.816406 L 360.15625 799.816406 Z M 360.15625 706.714844 " clip-rule="nonzero"/></clipPath><clipPath id="4b60f390ba"><path d="M 406.707031 799.816406 C 432.414062 799.816406 453.257812 778.972656 453.257812 753.265625 C 453.257812 727.558594 432.414062 706.714844 406.707031 706.714844 C 380.996094 706.714844 360.15625 727.558594 360.15625 753.265625 C 360.15625 778.972656 380.996094 799.816406 406.707031 799.816406 Z M 406.707031 799.816406 " clip-rule="nonzero"/></clipPath></defs><g clip-path="url(#d06fcf1e50)"><g clip-path="url(#d7645cc747)"><path fill="#000000" d="M 457.007812 809.992188 L 355.253906 809.992188 L 355.253906 708.238281 L 457.007812 708.238281 Z M 457.007812 809.992188 " fill-opacity="1" fill-rule="nonzero"/></g></g><g clip-path="url(#3c365a0f50)"><g clip-path="url(#f1f0032e2e)"><path stroke-linecap="butt" transform="matrix(-0.75, 0, 0, -0.75, 472.905196, 135.829993)" fill="none" stroke-linejoin="miter" d="M 90.545474 0.00249089 C 40.540263 0.00249089 -0.00140572 40.538951 -0.00140572 90.54937 C -0.00140572 140.554581 40.540263 181.09625 90.545474 181.09625 C 140.555893 181.09625 181.092353 140.554581 181.092353 90.54937 C 181.092353 40.538951 140.555893 0.00249089 90.545474 0.00249089 Z M 90.545474 0.00249089 " stroke="#000000" stroke-width="60" stroke-opacity="1" stroke-miterlimit="4"/></g></g><path stroke-linecap="butt" transform="matrix(-0.00120899, -0.749999, 0.749999, -0.00120899, 400.138723, 708.255512)" fill="none" stroke-linejoin="miter" d="M -0.000341842 8.002546 L 944.318659 7.998734 " stroke="#000000" stroke-width="16" stroke-opacity="1" stroke-miterlimit="4"/><path stroke-linecap="butt" transform="matrix(-0.75, -0.0000525588, 0.0000525588, -0.75, 472.903492, 73.9246)" fill="none" stroke-linejoin="miter" d="M 0.00209113 7.998426 L 171.684392 8.002019 " stroke="#000000" stroke-width="16" stroke-opacity="1" stroke-miterlimit="4"/><path stroke-linecap="butt" transform="matrix(-0.00176193, -0.749998, 0.749998, -0.00176193, 395.457816, 728.991727)" fill="none" stroke-linejoin="miter" d="M 0.000608465 14.998997 L 971.951244 15.001096 " stroke="#000000" stroke-width="30" stroke-opacity="1" stroke-miterlimit="4"/><path stroke-linecap="butt" transform="matrix(-0.75, 0.000051581, -0.000051581, -0.75, 457.008269, 79.062974)" fill="none" stroke-linejoin="miter" d="M -0.000423653 15.000632 L 143.780834 15.000104 " stroke="#000000" stroke-width="30" stroke-opacity="1" stroke-miterlimit="4"/><g clip-path="url(#8f238ca6ec)"><g clip-path="url(#c34b7b8472)"><path fill="#000000" d="M 463.433594 809.992188 L 349.972656 809.992188 L 349.972656 696.53125 L 463.433594 696.53125 Z M 463.433594 809.992188 " fill-opacity="1" fill-rule="nonzero"/></g></g><g clip-path="url(#67cd7153b2)"><g clip-path="url(#e17a8c53a0)"><path fill="#ffffff" d="M 448.523438 795.082031 L 364.898438 795.082031 L 364.898438 711.457031 L 448.523438 711.457031 Z M 448.523438 795.082031 " fill-opacity="1" fill-rule="nonzero"/></g></g><g clip-path="url(#f517c64214)"><g clip-path="url(#534aa392c7)"><path stroke-linecap="butt" transform="matrix(-0.75, 0, 0, -0.75, 460.804348, 123.625137)" fill="none" stroke-linejoin="miter" d="M 74.416218 0.000182641 C 33.317258 0.000182641 -0.000452243 33.317893 -0.000452243 74.411645 C -0.000452243 115.510605 33.317258 148.828315 74.416218 148.828315 C 115.50997 148.828315 148.82768 115.510605 148.82768 74.411645 C 148.82768 33.317893 115.50997 0.000182641 74.416218 0.000182641 Z M 74.416218 0.000182641 " stroke="#000000" stroke-width="22" stroke-opacity="1" stroke-miterlimit="4"/></g></g><path stroke-linecap="butt" transform="matrix(-0.00182686, -0.749998, 0.749998, -0.00182686, 393.207171, 711.4862)" fill="none" stroke-linejoin="miter" d="M 0.000255884 17.999869 L 937.497879 18.002192 " stroke="#000000" stroke-width="36" stroke-opacity="1" stroke-miterlimit="4"/><path stroke-linecap="butt" transform="matrix(-0.00173285, -0.749998, 0.749998, -0.00173285, 401.735081, 711.464288)" fill="none" stroke-linejoin="miter" d="M -0.000131644 6.499076 L 932.606562 6.497586 " stroke="#ffffff" stroke-width="13" stroke-opacity="1" stroke-miterlimit="4"/><path stroke-linecap="butt" transform="matrix(-0.75, -0.0000526963, 0.0000526963, -0.75, 460.804108, 72.695385)" fill="none" stroke-linejoin="miter" d="M -0.000315535 6.500097 L 140.734067 6.500626 " stroke="#ffffff" stroke-width="13" stroke-opacity="1" stroke-miterlimit="4"/><g clip-path="url(#f6930f6794)"><g clip-path="url(#ffda3e97b9)"><path stroke-linecap="butt" transform="matrix(-0.75, 0, 0, -0.75, 464.587996, 127.516713)" fill="none" stroke-linejoin="miter" d="M 79.450665 0.00145038 C 35.570455 0.00145038 -0.0024635 35.574369 -0.0024635 79.454579 C -0.0024635 123.33479 35.570455 158.907708 79.450665 158.907708 C 123.336084 158.907708 158.903794 123.33479 158.903794 79.454579 C 158.903794 35.574369 123.336084 0.00145038 79.450665 0.00145038 Z M 79.450665 0.00145038 " stroke="#ffffff" stroke-width="14" stroke-opacity="1" stroke-miterlimit="4"/></g></g><path stroke-linecap="butt" transform="matrix(-0.75, -0.0000526963, 0.0000526963, -0.75, 454.722317, 72.803308)" fill="none" stroke-linejoin="miter" d="M 0.00000373668 6.498161 L 140.734386 6.49869 " stroke="#ffffff" stroke-width="13" stroke-opacity="1" stroke-miterlimit="4"/><g clip-path="url(#8ef7d94105)"><g clip-path="url(#4b60f390ba)"><path fill="#ffffff" d="M 453.257812 799.816406 L 360.15625 799.816406 L 360.15625 706.714844 L 453.257812 706.714844 Z M 453.257812 799.816406 " fill-opacity="1" fill-rule="nonzero"/></g></g></svg>