<svg xmlns="http://www.w3.org/2000/svg" xmlns:xlink="http://www.w3.org/1999/xlink" width="1080" zoomAndPan="magnify" viewBox="0 0 810 809.999993" height="1080" preserveAspectRatio="xMidYMid meet" version="1.0"><defs><clipPath id="4e6ef1a7e5"><path d="M 352.984375 0 L 454.734375 0 L 454.734375 101.734375 L 352.984375 101.734375 Z M 352.984375 0 " clip-rule="nonzero"/></clipPath><clipPath id="7e1e9e5ea9"><path d="M 403.859375 -0.015625 C 375.761719 -0.015625 352.984375 22.761719 352.984375 50.859375 C 352.984375 78.957031 375.761719 101.734375 403.859375 101.734375 C 431.957031 101.734375 454.734375 78.957031 454.734375 50.859375 C 454.734375 22.761719 431.957031 -0.015625 403.859375 -0.015625 Z M 403.859375 -0.015625 " clip-rule="nonzero"/></clipPath><clipPath id="ea40f471c4"><path d="M 337.085938 674.144531 L 472.835938 674.144531 L 472.835938 809.894531 L 337.085938 809.894531 Z M 337.085938 674.144531 " clip-rule="nonzero"/></clipPath><clipPath id="d89a001bf0"><path d="M 404.996094 674.144531 C 367.488281 674.144531 337.085938 704.546875 337.085938 742.054688 C 337.085938 779.558594 367.488281 809.964844 404.996094 809.964844 C 442.5 809.964844 472.90625 779.558594 472.90625 742.054688 C 472.90625 704.546875 442.5 674.144531 404.996094 674.144531 Z M 404.996094 674.144531 " clip-rule="nonzero"/></clipPath><clipPath id="45b8c4fe39"><path d="M 346.558594 0 L 460.015625 0 L 460.015625 113.441406 L 346.558594 113.441406 Z M 346.558594 0 " clip-rule="nonzero"/></clipPath><clipPath id="ba7eee0126"><path d="M 403.289062 -0.015625 C 371.957031 -0.015625 346.558594 25.382812 346.558594 56.710938 C 346.558594 88.042969 371.957031 113.441406 403.289062 113.441406 C 434.617188 113.441406 460.015625 88.042969 460.015625 56.710938 C 460.015625 25.382812 434.617188 -0.015625 403.289062 -0.015625 Z M 403.289062 -0.015625 " clip-rule="nonzero"/></clipPath><clipPath id="c3593a64b1"><path d="M 361.476562 14.898438 L 445.101562 14.898438 L 445.101562 98.523438 L 361.476562 98.523438 Z M 361.476562 14.898438 " clip-rule="nonzero"/></clipPath><clipPath id="969e3d1a83"><path d="M 403.289062 14.898438 C 380.195312 14.898438 361.476562 33.621094 361.476562 56.710938 C 361.476562 79.804688 380.195312 98.523438 403.289062 98.523438 C 426.378906 98.523438 445.101562 79.804688 445.101562 56.710938 C 445.101562 33.621094 426.378906 14.898438 403.289062 14.898438 Z M 403.289062 14.898438 " clip-rule="nonzero"/></clipPath><clipPath id="fea1ba4668"><path d="M 349.183594 686.347656 L 460.804688 686.347656 L 460.804688 797.96875 L 349.183594 797.96875 Z M 349.183594 686.347656 " clip-rule="nonzero"/></clipPath><clipPath id="a5dda54c3a"><path d="M 404.996094 686.347656 C 374.171875 686.347656 349.183594 711.335938 349.183594 742.15625 C 349.183594 772.980469 374.171875 797.96875 404.996094 797.96875 C 435.816406 797.96875 460.804688 772.980469 460.804688 742.15625 C 460.804688 711.335938 435.816406 686.347656 404.996094 686.347656 Z M 404.996094 686.347656 " clip-rule="nonzero"/></clipPath><clipPath id="b86e950ab0"><path d="M 345.410156 682.464844 L 464.589844 682.464844 L 464.589844 801.644531 L 345.410156 801.644531 Z M 345.410156 682.464844 " clip-rule="nonzero"/></clipPath><clipPath id="2f3583bd25"><path d="M 405 682.464844 C 372.089844 682.464844 345.410156 709.144531 345.410156 742.054688 C 345.410156 774.964844 372.089844 801.644531 405 801.644531 C 437.910156 801.644531 464.589844 774.964844 464.589844 742.054688 C 464.589844 709.144531 437.910156 682.464844 405 682.464844 Z M 405 682.464844 " clip-rule="nonzero"/></clipPath><clipPath id="43c823273c"><path d="M 356.738281 10.164062 L 449.835938 10.164062 L 449.835938 103.261719 L 356.738281 103.261719 Z M 356.738281 10.164062 " clip-rule="nonzero"/></clipPath><clipPath id="52b164327f"><path d="M 403.289062 10.164062 C 377.578125 10.164062 356.738281 31.003906 356.738281 56.710938 C 356.738281 82.421875 377.578125 103.261719 403.289062 103.261719 C 428.996094 103.261719 449.835938 82.421875 449.835938 56.710938 C 449.835938 31.003906 428.996094 10.164062 403.289062 10.164062 Z M 403.289062 10.164062 " clip-rule="nonzero"/></clipPath></defs><g clip-path="url(#4e6ef1a7e5)"><g clip-path="url(#7e1e9e5ea9)"><path fill="#000000" d="M 352.984375 -0.015625 L 454.734375 -0.015625 L 454.734375 101.734375 L 352.984375 101.734375 Z M 352.984375 -0.015625 " fill-opacity="1" fill-rule="nonzero"/></g></g><g clip-path="url(#ea40f471c4)"><g clip-path="url(#d89a001bf0)"><path stroke-linecap="butt" transform="matrix(0.75, 0, 0, 0.75, 337.085288, 674.14441)" fill="none" stroke-linejoin="miter" d="M 90.547745 0.000161554 C 40.537326 0.000161554 0.000865811 40.536622 0.000865811 90.547041 C 0.000865811 140.552252 40.537326 181.093921 90.547745 181.093921 C 140.552956 181.093921 181.094625 140.552252 181.094625 90.547041 C 181.094625 40.536622 140.552956 0.000161554 90.547745 0.000161554 Z M 90.547745 0.000161554 " stroke="#000000" stroke-width="60" stroke-opacity="1" stroke-miterlimit="4"/></g></g><path stroke-linecap="butt" transform="matrix(0.00120899, 0.749999, -0.749999, 0.00120899, 409.855783, 101.728366)" fill="none" stroke-linejoin="miter" d="M 0.000323621 8.00043 L 944.319316 8.001829 " stroke="#000000" stroke-width="16" stroke-opacity="1" stroke-miterlimit="4"/><path stroke-linecap="butt" transform="matrix(0.75, 0.0000525575, -0.0000525575, 0.75, 337.085699, 736.059247)" fill="none" stroke-linejoin="miter" d="M 0.000879164 7.999129 L 171.688388 7.997515 " stroke="#000000" stroke-width="16" stroke-opacity="1" stroke-miterlimit="4"/><path stroke-linecap="butt" transform="matrix(0.00176193, 0.749998, -0.749998, 0.00176193, 414.533191, 80.992216)" fill="none" stroke-linejoin="miter" d="M 0.0011878 14.997424 L 971.951823 14.999525 " stroke="#000000" stroke-width="30" stroke-opacity="1" stroke-miterlimit="4"/><path stroke-linecap="butt" transform="matrix(0.75, -0.0000515797, 0.0000515797, 0.75, 352.981714, 730.920919)" fill="none" stroke-linejoin="miter" d="M 0.00251666 15.001275 L 143.778566 15.000747 " stroke="#000000" stroke-width="30" stroke-opacity="1" stroke-miterlimit="4"/><g clip-path="url(#45b8c4fe39)"><g clip-path="url(#ba7eee0126)"><path fill="#000000" d="M 346.558594 -0.015625 L 460.015625 -0.015625 L 460.015625 113.441406 L 346.558594 113.441406 Z M 346.558594 -0.015625 " fill-opacity="1" fill-rule="nonzero"/></g></g><g clip-path="url(#c3593a64b1)"><g clip-path="url(#969e3d1a83)"><path fill="#ffffff" d="M 361.476562 14.898438 L 445.101562 14.898438 L 445.101562 98.523438 L 361.476562 98.523438 Z M 361.476562 14.898438 " fill-opacity="1" fill-rule="nonzero"/></g></g><g clip-path="url(#fea1ba4668)"><g clip-path="url(#a5dda54c3a)"><path stroke-linecap="butt" transform="matrix(0.75, 0, 0, 0.75, 349.184019, 686.347185)" fill="none" stroke-linejoin="miter" d="M 74.416104 0.000627706 C 33.317143 0.000627706 -0.000566644 33.318338 -0.000566644 74.41209 C -0.000566644 115.51105 33.317143 148.82876 74.416104 148.82876 C 115.509856 148.82876 148.827566 115.51105 148.827566 74.41209 C 148.827566 33.318338 115.509856 0.000627706 74.416104 0.000627706 Z M 74.416104 0.000627706 " stroke="#000000" stroke-width="22" stroke-opacity="1" stroke-miterlimit="4"/></g></g><path stroke-linecap="butt" transform="matrix(0.00182686, 0.749998, -0.749998, 0.00182686, 416.782519, 98.49764)" fill="none" stroke-linejoin="miter" d="M 0.000964542 18.001748 L 937.4986 17.998864 " stroke="#000000" stroke-width="36" stroke-opacity="1" stroke-miterlimit="4"/><path stroke-linecap="butt" transform="matrix(0.00173285, 0.749998, -0.749998, 0.00173285, 408.253735, 98.519605)" fill="none" stroke-linejoin="miter" d="M 0.000509561 6.49979 L 932.607204 6.498302 " stroke="#ffffff" stroke-width="13" stroke-opacity="1" stroke-miterlimit="4"/><path stroke-linecap="butt" transform="matrix(0.75, 0.000052695, -0.000052695, 0.75, 349.184372, 737.288479)" fill="none" stroke-linejoin="miter" d="M -0.0005803 6.500778 L 140.733802 6.501307 " stroke="#ffffff" stroke-width="13" stroke-opacity="1" stroke-miterlimit="4"/><g clip-path="url(#b86e950ab0)"><g clip-path="url(#2f3583bd25)"><path stroke-linecap="butt" transform="matrix(0.75, 0, 0, 0.75, 345.409088, 682.464298)" fill="none" stroke-linejoin="miter" d="M 79.454554 0.000728112 C 35.574343 0.000728112 0.0014247 35.573647 0.0014247 79.453857 C 0.0014247 123.334068 35.574343 158.906986 79.454554 158.906986 C 123.334764 158.906986 158.907683 123.334068 158.907683 79.453857 C 158.907683 35.573647 123.334764 0.000728112 79.454554 0.000728112 Z M 79.454554 0.000728112 " stroke="#ffffff" stroke-width="14" stroke-opacity="1" stroke-miterlimit="4"/></g></g><path stroke-linecap="butt" transform="matrix(0.75, 0.000052695, -0.000052695, 0.75, 355.266197, 737.180599)" fill="none" stroke-linejoin="miter" d="M -0.000305832 6.498785 L 140.734076 6.499314 " stroke="#ffffff" stroke-width="13" stroke-opacity="1" stroke-miterlimit="4"/><g clip-path="url(#43c823273c)"><g clip-path="url(#52b164327f)"><path fill="#ffffff" d="M 356.738281 10.164062 L 449.835938 10.164062 L 449.835938 103.261719 L 356.738281 103.261719 Z M 356.738281 10.164062 " fill-opacity="1" fill-rule="nonzero"/></g></g></svg>