<svg xmlns="http://www.w3.org/2000/svg" xmlns:xlink="http://www.w3.org/1999/xlink" width="1080" zoomAndPan="magnify" viewBox="0 0 810 809.999993" height="1080" preserveAspectRatio="xMidYMid meet" version="1.0"><defs><g/><clipPath id="44920fc28d"><path d="M 66.8125 73.324219 L 742.5625 73.324219 L 742.5625 733.597656 L 66.8125 733.597656 Z M 66.8125 73.324219 " clip-rule="nonzero"/></clipPath><clipPath id="facf57a8c8"><path d="M 105.0625 73.324219 L 703.785156 73.324219 C 713.929688 73.324219 723.65625 77.355469 730.832031 84.527344 C 738.003906 91.699219 742.035156 101.429688 742.035156 111.574219 L 742.035156 695.347656 C 742.035156 705.492188 738.003906 715.21875 730.832031 722.394531 C 723.65625 729.566406 713.929688 733.597656 703.785156 733.597656 L 105.0625 733.597656 C 94.917969 733.597656 85.191406 729.566406 78.015625 722.394531 C 70.84375 715.21875 66.8125 705.492188 66.8125 695.347656 L 66.8125 111.574219 C 66.8125 101.429688 70.84375 91.699219 78.015625 84.527344 C 85.191406 77.355469 94.917969 73.324219 105.0625 73.324219 Z M 105.0625 73.324219 " clip-rule="nonzero"/></clipPath><clipPath id="d7de58d4db"><path d="M 66.8125 73.324219 L 742.035156 73.324219 L 742.035156 733.597656 L 66.8125 733.597656 Z M 66.8125 73.324219 " clip-rule="nonzero"/></clipPath><clipPath id="6b923fc899"><path d="M 728 121 L 749.570312 121 L 749.570312 686 L 728 686 Z M 728 121 " clip-rule="nonzero"/></clipPath><clipPath id="07e35b6ad9"><path d="M 59.570312 121 L 81 121 L 81 686 L 59.570312 686 Z M 59.570312 121 " clip-rule="nonzero"/></clipPath><clipPath id="fc6d1936d6"><path d="M 122 58.605469 L 687 58.605469 L 687 80 L 122 80 Z M 122 58.605469 " clip-rule="nonzero"/></clipPath><clipPath id="906e1a01b5"><path d="M 122 727 L 687 727 L 687 748.605469 L 122 748.605469 Z M 122 727 " clip-rule="nonzero"/></clipPath><clipPath id="862b151297"><path d="M 686 58.605469 L 749.570312 58.605469 L 749.570312 122 L 686 122 Z M 686 58.605469 " clip-rule="nonzero"/></clipPath><clipPath id="125d0163cd"><path d="M 59.570312 58.605469 L 123 58.605469 L 123 122 L 59.570312 122 Z M 59.570312 58.605469 " clip-rule="nonzero"/></clipPath><clipPath id="19b34ccee8"><path d="M 686 685 L 749.570312 685 L 749.570312 748.605469 L 686 748.605469 Z M 686 685 " clip-rule="nonzero"/></clipPath><clipPath id="00ad4cd056"><path d="M 59.570312 685 L 123 685 L 123 748.605469 L 59.570312 748.605469 Z M 59.570312 685 " clip-rule="nonzero"/></clipPath></defs><g clip-path="url(#44920fc28d)"><g clip-path="url(#facf57a8c8)"><path fill="#ffffff" d="M 66.8125 73.324219 L 742.5625 73.324219 L 742.5625 733.597656 L 66.8125 733.597656 Z M 66.8125 73.324219 " fill-opacity="1" fill-rule="nonzero"/></g></g><g clip-path="url(#d7de58d4db)"><path fill="#ff0000" d="M 66.8125 73.324219 L 742.5625 73.324219 L 742.5625 733.597656 L 66.8125 733.597656 Z M 66.8125 73.324219 " fill-opacity="1" fill-rule="nonzero"/></g><g clip-path="url(#6b923fc899)"><path fill="#000000" d="M 728.667969 121.808594 L 749.277344 121.808594 L 749.277344 685.113281 L 728.667969 685.113281 Z M 728.667969 121.808594 " fill-opacity="1" fill-rule="nonzero"/></g><g clip-path="url(#07e35b6ad9)"><path fill="#000000" d="M 59.570312 121.808594 L 80.179688 121.808594 L 80.179688 685.113281 L 59.570312 685.113281 Z M 59.570312 121.808594 " fill-opacity="1" fill-rule="nonzero"/></g><g clip-path="url(#fc6d1936d6)"><path fill="#000000" d="M 122.769531 58.605469 L 686.078125 58.605469 L 686.078125 79.214844 L 122.769531 79.214844 Z M 122.769531 58.605469 " fill-opacity="1" fill-rule="nonzero"/></g><g clip-path="url(#906e1a01b5)"><path fill="#000000" d="M 122.769531 727.703125 L 686.078125 727.703125 L 686.078125 748.3125 L 122.769531 748.3125 Z M 122.769531 727.703125 " fill-opacity="1" fill-rule="nonzero"/></g><g clip-path="url(#862b151297)"><path fill="#000000" d="M 728.667969 79.214844 L 728.667969 121.808594 L 749.277344 121.808594 L 749.277344 58.605469 L 686.078125 58.605469 L 686.078125 79.214844 Z M 728.667969 79.214844 " fill-opacity="1" fill-rule="nonzero"/></g><g clip-path="url(#125d0163cd)"><path fill="#000000" d="M 80.179688 79.214844 L 122.769531 79.214844 L 122.769531 58.605469 L 59.570312 58.605469 L 59.570312 121.808594 L 80.179688 121.808594 Z M 80.179688 79.214844 " fill-opacity="1" fill-rule="nonzero"/></g><g clip-path="url(#19b34ccee8)"><path fill="#000000" d="M 728.667969 727.703125 L 686.078125 727.703125 L 686.078125 748.3125 L 749.277344 748.3125 L 749.277344 685.113281 L 728.667969 685.113281 Z M 728.667969 727.703125 " fill-opacity="1" fill-rule="nonzero"/></g><g clip-path="url(#00ad4cd056)"><path fill="#000000" d="M 80.179688 727.703125 L 80.179688 685.113281 L 59.570312 685.113281 L 59.570312 748.3125 L 122.769531 748.3125 L 122.769531 727.703125 Z M 80.179688 727.703125 " fill-opacity="1" fill-rule="nonzero"/></g><g fill="#000000" fill-opacity="1"><g transform="translate(83.059643, 643.824124)"><g><path d="M 359.09375 -468.296875 C 339.5 -468.296875 324.800781 -466.660156 315 -463.390625 C 305.195312 -460.128906 297.378906 -453.945312 291.546875 -444.84375 C 285.710938 -435.75 280 -421.164062 274.40625 -401.09375 L 234.5 -259.703125 L 416.5 -259.703125 L 457.09375 -403.203125 C 461.300781 -419.066406 463.40625 -429.800781 463.40625 -435.40625 C 463.40625 -447.070312 458.96875 -455.46875 450.09375 -460.59375 C 441.226562 -465.726562 428.164062 -468.296875 410.90625 -468.296875 L 414.40625 -480.90625 L 632.09375 -480.90625 L 628.59375 -468.296875 C 611.800781 -467.367188 599.203125 -464.101562 590.796875 -458.5 C 582.398438 -452.894531 575.984375 -444.726562 571.546875 -434 C 567.117188 -423.269531 560.9375 -404.132812 553 -376.59375 L 473.203125 -96.59375 C 471.796875 -91.925781 469.34375 -83.175781 465.84375 -70.34375 C 462.34375 -57.507812 460.59375 -48.757812 460.59375 -44.09375 C 460.59375 -33.832031 465.144531 -26.015625 474.25 -20.640625 C 483.351562 -15.273438 493.96875 -12.59375 506.09375 -12.59375 L 514.5 -12.59375 L 511 0 L 276.5 0 L 280 -12.59375 C 298.664062 -12.59375 312.898438 -14.109375 322.703125 -17.140625 C 332.503906 -20.179688 340.4375 -26.132812 346.5 -35 C 352.5625 -43.863281 358.394531 -57.863281 364 -77 L 408.09375 -233.09375 L 226.09375 -233.09375 L 185.5 -88.90625 C 178.5 -63.238281 175 -48.300781 175 -44.09375 C 175 -36.632812 178.613281 -29.519531 185.84375 -22.75 C 193.082031 -15.976562 204.164062 -12.59375 219.09375 -12.59375 L 228.203125 -12.59375 L 224.703125 0 L 10.5 0 L 10.5 -12.59375 C 30.101562 -13.0625 44.453125 -17.613281 53.546875 -26.25 C 62.648438 -34.882812 70.46875 -50.398438 77 -72.796875 L 172.203125 -403.90625 C 176.398438 -417.4375 178.5 -428.164062 178.5 -436.09375 C 178.5 -446.363281 174.179688 -454.296875 165.546875 -459.890625 C 156.910156 -465.492188 143.960938 -468.296875 126.703125 -468.296875 L 130.203125 -480.90625 L 362.59375 -480.90625 Z M 359.09375 -468.296875 "/></g></g></g></svg>