<svg xmlns="http://www.w3.org/2000/svg" xmlns:xlink="http://www.w3.org/1999/xlink" width="500" zoomAndPan="magnify" viewBox="0 0 375 374.999991" height="500" preserveAspectRatio="xMidYMid meet" version="1.0"><defs><g/><clipPath id="1c771afa70"><path d="M 336 273 L 362.535156 273 L 362.535156 302 L 336 302 Z M 336 273 " clip-rule="nonzero"/></clipPath></defs><path fill="#ffd230" d="M 174.84375 291.246094 C 179.96875 287.515625 185.757812 284.285156 192.160156 283.617188 C 198.675781 282.949219 204.632812 285.285156 210.59375 287.625 C 216.214844 289.851562 222.117188 292.078125 228.300781 291.300781 C 234.367188 290.519531 239.15625 286.679688 244.667969 284.394531 C 250.40625 281.945312 255.640625 283.058594 261.207031 285.453125 C 266.550781 287.738281 271.675781 290.019531 277.632812 289.851562 C 284.257812 289.628906 290.382812 286.957031 296.789062 285.675781 C 303.636719 284.285156 310.152344 285.175781 315.941406 289.242188 C 318.78125 291.246094 321.566406 293.472656 325.019531 294.195312 C 327.914062 294.863281 330.976562 294.585938 333.761719 293.472656 C 339.71875 291.1875 344.339844 286.402344 348.460938 281.613281 C 350.1875 279.605469 347.292969 276.65625 345.507812 278.660156 C 341.945312 282.835938 337.882812 287.347656 332.648438 289.464844 C 330.03125 290.519531 327.246094 290.6875 324.574219 289.742188 C 321.566406 288.628906 319.117188 286.289062 316.5 284.617188 C 311.042969 281.109375 304.472656 280.332031 298.125 281.277344 C 291.664062 282.167969 285.539062 285.0625 279.027344 285.621094 C 267.332031 286.679688 257.976562 276.097656 246.117188 279.496094 C 240.4375 281.167969 235.761719 285.175781 230.027344 286.789062 C 223.84375 288.515625 217.71875 286.066406 212.039062 283.839844 C 205.527344 281.222656 199.011719 278.773438 191.882812 279.550781 C 184.8125 280.332031 178.519531 283.617188 172.839844 287.738281 C 170.613281 289.242188 172.671875 292.804688 174.84375 291.246094 Z M 174.84375 291.246094 " fill-opacity="1" fill-rule="nonzero"/><g clip-path="url(#1c771afa70)"><path fill="#ffd230" d="M 336.378906 276.824219 L 336.378906 298.539062 C 336.378906 300.820312 338.828125 302.269531 340.832031 301.15625 L 360.710938 290.296875 C 362.769531 289.183594 362.769531 286.179688 360.710938 285.007812 L 340.832031 274.207031 C 338.828125 273.09375 336.378906 274.539062 336.378906 276.824219 Z M 336.378906 276.824219 " fill-opacity="1" fill-rule="nonzero"/></g><g fill="#0000ff" fill-opacity="1"><g transform="translate(90.573449, 169.340058)"><g><path d="M 27.890625 -16.375 C 27.890625 -10.789062 26.992188 -6.664062 25.203125 -4 C 23.410156 -1.332031 20.382812 0 16.125 0 L 3.625 0 L 3.625 -83.28125 L 16.125 -83.28125 C 20.382812 -83.28125 23.410156 -81.945312 25.203125 -79.28125 C 26.992188 -76.613281 27.890625 -72.488281 27.890625 -66.90625 Z M 20.375 -68.28125 C 20.375 -70.945312 20.0625 -72.84375 19.4375 -73.96875 C 18.8125 -75.09375 17.707031 -75.65625 16.125 -75.65625 L 11.25 -75.65625 L 11.25 -7.625 L 16.125 -7.625 C 17.707031 -7.625 18.8125 -8.164062 19.4375 -9.25 C 20.0625 -10.332031 20.375 -12.207031 20.375 -14.875 Z M 20.375 -68.28125 "/></g></g></g><g fill="#0000ff" fill-opacity="1"><g transform="translate(121.460884, 169.340058)"><g><path d="M 21.265625 -12.125 C 21.265625 -8.125 20.445312 -4.9375 18.8125 -2.5625 C 17.1875 -0.1875 15.039062 1 12.375 1 C 9.707031 1 7.457031 -0.1875 5.625 -2.5625 C 3.789062 -4.9375 2.875 -8.125 2.875 -12.125 L 2.875 -45.765625 C 2.875 -49.679688 3.789062 -52.847656 5.625 -55.265625 C 7.457031 -57.679688 9.707031 -58.890625 12.375 -58.890625 C 15.039062 -58.890625 17.1875 -57.679688 18.8125 -55.265625 C 20.445312 -52.847656 21.265625 -49.679688 21.265625 -45.765625 L 21.265625 -27.640625 L 9 -27.640625 L 9 -11.375 C 9 -7.789062 10.207031 -6 12.625 -6 C 13.875 -6 14.707031 -6.476562 15.125 -7.4375 C 15.539062 -8.394531 15.75 -9.707031 15.75 -11.375 L 15.75 -20.25 L 21.265625 -20.25 Z M 15.75 -46.390625 C 15.75 -48.054688 15.539062 -49.367188 15.125 -50.328125 C 14.707031 -51.285156 13.875 -51.765625 12.625 -51.765625 C 10.207031 -51.765625 9 -49.972656 9 -46.390625 L 9 -33.265625 L 15.75 -33.265625 Z M 15.75 -46.390625 "/></g></g></g><g fill="#0000ff" fill-opacity="1"><g transform="translate(145.470549, 169.340058)"><g><path d="M 21.265625 -12.125 C 21.265625 -8.125 20.488281 -4.9375 18.9375 -2.5625 C 17.394531 -0.1875 15.164062 1 12.25 1 C 9.582031 1 7.351562 -0.1875 5.5625 -2.5625 C 3.769531 -4.9375 2.875 -8.125 2.875 -12.125 L 2.875 -45.765625 C 2.875 -49.679688 3.769531 -52.847656 5.5625 -55.265625 C 7.351562 -57.679688 9.582031 -58.890625 12.25 -58.890625 C 15.164062 -58.890625 17.394531 -57.679688 18.9375 -55.265625 C 20.488281 -52.847656 21.265625 -49.679688 21.265625 -45.765625 L 21.265625 -37.515625 L 16.125 -37.515625 L 16.125 -47.015625 C 16.125 -48.429688 15.832031 -49.578125 15.25 -50.453125 C 14.664062 -51.328125 13.789062 -51.765625 12.625 -51.765625 C 11.539062 -51.765625 10.6875 -51.328125 10.0625 -50.453125 C 9.4375 -49.578125 9.125 -48.429688 9.125 -47.015625 L 9.125 -10.75 C 9.125 -9.332031 9.4375 -8.226562 10.0625 -7.4375 C 10.6875 -6.644531 11.539062 -6.25 12.625 -6.25 C 13.789062 -6.25 14.664062 -6.644531 15.25 -7.4375 C 15.832031 -8.226562 16.125 -9.332031 16.125 -10.75 L 16.125 -20 L 21.265625 -20 Z M 21.265625 -12.125 "/></g></g></g><g fill="#0000ff" fill-opacity="1"><g transform="translate(168.85496, 169.340058)"><g><path d="M 22.265625 -12.125 C 22.265625 -8.125 21.320312 -4.9375 19.4375 -2.5625 C 17.5625 -0.1875 15.289062 1 12.625 1 C 9.875 1 7.5625 -0.1875 5.6875 -2.5625 C 3.8125 -4.9375 2.875 -8.125 2.875 -12.125 L 2.875 -45.765625 C 2.875 -49.679688 3.8125 -52.847656 5.6875 -55.265625 C 7.5625 -57.679688 9.875 -58.890625 12.625 -58.890625 C 15.289062 -58.890625 17.5625 -57.679688 19.4375 -55.265625 C 21.320312 -52.847656 22.265625 -49.679688 22.265625 -45.765625 Z M 16.125 -47.015625 C 16.125 -48.429688 15.832031 -49.578125 15.25 -50.453125 C 14.664062 -51.328125 13.789062 -51.765625 12.625 -51.765625 C 11.457031 -51.765625 10.582031 -51.328125 10 -50.453125 C 9.414062 -49.578125 9.125 -48.429688 9.125 -47.015625 L 9.125 -10.75 C 9.125 -9.332031 9.414062 -8.226562 10 -7.4375 C 10.582031 -6.644531 11.457031 -6.25 12.625 -6.25 C 13.789062 -6.25 14.664062 -6.644531 15.25 -7.4375 C 15.832031 -8.226562 16.125 -9.332031 16.125 -10.75 Z M 16.125 -47.015625 "/></g></g></g><g fill="#0000ff" fill-opacity="1"><g transform="translate(193.990074, 169.340058)"><g><path d="M 16.375 0 L 16.375 -47.515625 C 16.375 -48.929688 16.0625 -50.054688 15.4375 -50.890625 C 14.8125 -51.722656 13.957031 -52.140625 12.875 -52.140625 C 11.789062 -52.140625 10.9375 -51.722656 10.3125 -50.890625 C 9.6875 -50.054688 9.375 -48.929688 9.375 -47.515625 L 9.375 0 L 3.25 0 L 3.25 -83.28125 L 9.375 -83.28125 L 9.375 -53.140625 C 10.539062 -56.972656 12.707031 -58.890625 15.875 -58.890625 C 18.039062 -58.890625 19.707031 -57.992188 20.875 -56.203125 C 22.050781 -54.410156 22.640625 -51.972656 22.640625 -48.890625 L 22.640625 0 Z M 16.375 0 "/></g></g></g><g fill="#0000ff" fill-opacity="1"><g transform="translate(219.625397, 169.340058)"><g><path d="M 21.265625 -12.125 C 21.265625 -8.125 20.445312 -4.9375 18.8125 -2.5625 C 17.1875 -0.1875 15.039062 1 12.375 1 C 9.707031 1 7.457031 -0.1875 5.625 -2.5625 C 3.789062 -4.9375 2.875 -8.125 2.875 -12.125 L 2.875 -45.765625 C 2.875 -49.679688 3.789062 -52.847656 5.625 -55.265625 C 7.457031 -57.679688 9.707031 -58.890625 12.375 -58.890625 C 15.039062 -58.890625 17.1875 -57.679688 18.8125 -55.265625 C 20.445312 -52.847656 21.265625 -49.679688 21.265625 -45.765625 L 21.265625 -27.640625 L 9 -27.640625 L 9 -11.375 C 9 -7.789062 10.207031 -6 12.625 -6 C 13.875 -6 14.707031 -6.476562 15.125 -7.4375 C 15.539062 -8.394531 15.75 -9.707031 15.75 -11.375 L 15.75 -20.25 L 21.265625 -20.25 Z M 15.75 -46.390625 C 15.75 -48.054688 15.539062 -49.367188 15.125 -50.328125 C 14.707031 -51.285156 13.875 -51.765625 12.625 -51.765625 C 10.207031 -51.765625 9 -49.972656 9 -46.390625 L 9 -33.265625 L 15.75 -33.265625 Z M 15.75 -46.390625 "/></g></g></g><g fill="#0000ff" fill-opacity="1"><g transform="translate(243.635062, 169.340058)"><g><path d="M 17.75 -51.015625 C 14.582031 -51.015625 12.394531 -50.492188 11.1875 -49.453125 C 9.976562 -48.410156 9.375 -46.722656 9.375 -44.390625 L 9.375 0 L 3.25 0 L 3.25 -58.515625 L 9.125 -58.515625 L 9.5 -52.765625 C 11 -56.847656 13.75 -58.890625 17.75 -58.890625 Z M 17.75 -51.015625 "/></g></g></g><g fill="#0000ff" fill-opacity="1"><g transform="translate(262.142509, 169.340058)"><g><path d="M 21.265625 -12.125 C 21.265625 -8.125 20.445312 -4.9375 18.8125 -2.5625 C 17.1875 -0.1875 15.039062 1 12.375 1 C 9.707031 1 7.457031 -0.1875 5.625 -2.5625 C 3.789062 -4.9375 2.875 -8.125 2.875 -12.125 L 2.875 -45.765625 C 2.875 -49.679688 3.789062 -52.847656 5.625 -55.265625 C 7.457031 -57.679688 9.707031 -58.890625 12.375 -58.890625 C 15.039062 -58.890625 17.1875 -57.679688 18.8125 -55.265625 C 20.445312 -52.847656 21.265625 -49.679688 21.265625 -45.765625 L 21.265625 -27.640625 L 9 -27.640625 L 9 -11.375 C 9 -7.789062 10.207031 -6 12.625 -6 C 13.875 -6 14.707031 -6.476562 15.125 -7.4375 C 15.539062 -8.394531 15.75 -9.707031 15.75 -11.375 L 15.75 -20.25 L 21.265625 -20.25 Z M 15.75 -46.390625 C 15.75 -48.054688 15.539062 -49.367188 15.125 -50.328125 C 14.707031 -51.285156 13.875 -51.765625 12.625 -51.765625 C 10.207031 -51.765625 9 -49.972656 9 -46.390625 L 9 -33.265625 L 15.75 -33.265625 Z M 15.75 -46.390625 "/></g></g></g><g fill="#0000ff" fill-opacity="1"><g transform="translate(286.152174, 169.340058)"><g><path d="M 16.5 0 L 16.5 -47.515625 C 16.5 -48.929688 16.1875 -50.054688 15.5625 -50.890625 C 14.9375 -51.722656 14.082031 -52.140625 13 -52.140625 C 11.832031 -52.140625 10.9375 -51.722656 10.3125 -50.890625 C 9.6875 -50.054688 9.375 -48.929688 9.375 -47.515625 L 9.375 0 L 3.25 0 L 3.25 -58.515625 L 9 -58.515625 L 9.375 -52.765625 C 9.957031 -54.929688 10.832031 -56.492188 12 -57.453125 C 13.164062 -58.410156 14.457031 -58.890625 15.875 -58.890625 C 18.039062 -58.890625 19.707031 -57.992188 20.875 -56.203125 C 22.050781 -54.410156 22.640625 -51.972656 22.640625 -48.890625 L 22.640625 0 Z M 16.5 0 "/></g></g></g><g fill="#0000ff" fill-opacity="1"><g transform="translate(311.912542, 169.340058)"><g><path d="M 21.265625 -12.125 C 21.265625 -8.125 20.488281 -4.9375 18.9375 -2.5625 C 17.394531 -0.1875 15.164062 1 12.25 1 C 9.582031 1 7.351562 -0.1875 5.5625 -2.5625 C 3.769531 -4.9375 2.875 -8.125 2.875 -12.125 L 2.875 -45.765625 C 2.875 -49.679688 3.769531 -52.847656 5.5625 -55.265625 C 7.351562 -57.679688 9.582031 -58.890625 12.25 -58.890625 C 15.164062 -58.890625 17.394531 -57.679688 18.9375 -55.265625 C 20.488281 -52.847656 21.265625 -49.679688 21.265625 -45.765625 L 21.265625 -37.515625 L 16.125 -37.515625 L 16.125 -47.015625 C 16.125 -48.429688 15.832031 -49.578125 15.25 -50.453125 C 14.664062 -51.328125 13.789062 -51.765625 12.625 -51.765625 C 11.539062 -51.765625 10.6875 -51.328125 10.0625 -50.453125 C 9.4375 -49.578125 9.125 -48.429688 9.125 -47.015625 L 9.125 -10.75 C 9.125 -9.332031 9.4375 -8.226562 10.0625 -7.4375 C 10.6875 -6.644531 11.539062 -6.25 12.625 -6.25 C 13.789062 -6.25 14.664062 -6.644531 15.25 -7.4375 C 15.832031 -8.226562 16.125 -9.332031 16.125 -10.75 L 16.125 -20 L 21.265625 -20 Z M 21.265625 -12.125 "/></g></g></g><g fill="#0000ff" fill-opacity="1"><g transform="translate(335.296964, 169.340058)"><g><path d="M 21.265625 -12.125 C 21.265625 -8.125 20.445312 -4.9375 18.8125 -2.5625 C 17.1875 -0.1875 15.039062 1 12.375 1 C 9.707031 1 7.457031 -0.1875 5.625 -2.5625 C 3.789062 -4.9375 2.875 -8.125 2.875 -12.125 L 2.875 -45.765625 C 2.875 -49.679688 3.789062 -52.847656 5.625 -55.265625 C 7.457031 -57.679688 9.707031 -58.890625 12.375 -58.890625 C 15.039062 -58.890625 17.1875 -57.679688 18.8125 -55.265625 C 20.445312 -52.847656 21.265625 -49.679688 21.265625 -45.765625 L 21.265625 -27.640625 L 9 -27.640625 L 9 -11.375 C 9 -7.789062 10.207031 -6 12.625 -6 C 13.875 -6 14.707031 -6.476562 15.125 -7.4375 C 15.539062 -8.394531 15.75 -9.707031 15.75 -11.375 L 15.75 -20.25 L 21.265625 -20.25 Z M 15.75 -46.390625 C 15.75 -48.054688 15.539062 -49.367188 15.125 -50.328125 C 14.707031 -51.285156 13.875 -51.765625 12.625 -51.765625 C 10.207031 -51.765625 9 -49.972656 9 -46.390625 L 9 -33.265625 L 15.75 -33.265625 Z M 15.75 -46.390625 "/></g></g></g><path stroke-linecap="butt" transform="matrix(0, -0.75, 0.75, 0, 53.511915, 255.207288)" fill="none" stroke-linejoin="miter" d="M 0.000342389 3.999738 L 125.349309 3.999738 " stroke="#ff0000" stroke-width="8" stroke-opacity="1" stroke-miterlimit="4"/><path stroke-linecap="round" transform="matrix(0, -0.75, 0.75, 0, 53.511915, 255.207288)" fill-opacity="1" fill="#ff0000" fill-rule="nonzero" stroke-linejoin="round" d="M 127.349309 -8.000263 L 143.34931 3.999738 L 127.349309 15.999739 Z M 127.349309 -8.000263 " stroke="#ff0000" stroke-width="8" stroke-opacity="1" stroke-miterlimit="4"/><path stroke-linecap="butt" transform="matrix(0.75, 0, 0, 0.75, 56.513509, 248.823764)" fill="none" stroke-linejoin="miter" d="M -0.00238672 4.000607 L 117.883038 4.000607 " stroke="#ff0000" stroke-width="8" stroke-opacity="1" stroke-miterlimit="4"/><path stroke-linecap="round" transform="matrix(0.75, 0, 0, 0.75, 56.513509, 248.823764)" fill-opacity="1" fill="#ff0000" fill-rule="nonzero" stroke-linejoin="round" d="M 119.883038 -7.999394 L 135.883039 4.000607 L 119.883038 16.000608 Z M 119.883038 -7.999394 " stroke="#ff0000" stroke-width="8" stroke-opacity="1" stroke-miterlimit="4"/><path stroke-linecap="butt" transform="matrix(-0.615945, 0.427916, -0.427916, -0.615945, 55.933746, 256.780382)" fill="none" stroke-linejoin="miter" d="M -0.000780439 3.999779 L 45.222817 4.00034 " stroke="#ffd230" stroke-width="8" stroke-opacity="1" stroke-miterlimit="4"/><path stroke-linecap="round" transform="matrix(-0.615945, 0.427916, -0.427916, -0.615945, 55.933746, 256.780382)" fill-opacity="1" fill="#ffd230" fill-rule="nonzero" stroke-linejoin="round" d="M 47.218557 -8.000877 L 63.222134 3.998836 L 47.219137 15.997221 Z M 47.218557 -8.000877 " stroke="#ffd230" stroke-width="8" stroke-opacity="1" stroke-miterlimit="4"/><g fill="#ff0000" fill-opacity="1"><g transform="translate(161.423943, 251.510104)"><g><path d="M 4.625 -29.671875 C 4.625 -35.679688 5.84375 -40.960938 8.28125 -45.515625 C 10.71875 -50.066406 14.066406 -53.597656 18.328125 -56.109375 C 22.585938 -58.617188 27.332031 -59.875 32.5625 -59.875 C 37.726562 -59.875 42.207031 -58.757812 46 -56.53125 C 49.800781 -54.3125 52.632812 -51.519531 54.5 -48.15625 L 54.5 -58.90625 L 64.390625 -58.90625 L 64.390625 0 L 54.5 0 L 54.5 -10.96875 C 52.5625 -7.519531 49.675781 -4.664062 45.84375 -2.40625 C 42.007812 -0.15625 37.546875 0.96875 32.453125 0.96875 C 27.222656 0.96875 22.492188 -0.316406 18.265625 -2.890625 C 14.046875 -5.472656 10.71875 -9.09375 8.28125 -13.75 C 5.84375 -18.414062 4.625 -23.722656 4.625 -29.671875 Z M 54.5 -29.5625 C 54.5 -34 53.601562 -37.863281 51.8125 -41.15625 C 50.019531 -44.457031 47.597656 -46.984375 44.546875 -48.734375 C 41.503906 -50.492188 38.15625 -51.375 34.5 -51.375 C 30.84375 -51.375 27.507812 -50.515625 24.5 -48.796875 C 21.488281 -47.078125 19.085938 -44.566406 17.296875 -41.265625 C 15.515625 -37.972656 14.625 -34.109375 14.625 -29.671875 C 14.625 -25.148438 15.515625 -21.222656 17.296875 -17.890625 C 19.085938 -14.554688 21.488281 -12.007812 24.5 -10.25 C 27.507812 -8.5 30.84375 -7.625 34.5 -7.625 C 38.15625 -7.625 41.503906 -8.5 44.546875 -10.25 C 47.597656 -12.007812 50.019531 -14.554688 51.8125 -17.890625 C 53.601562 -21.222656 54.5 -25.113281 54.5 -29.5625 Z M 54.5 -29.5625 "/></g></g></g><g fill="#ff0000" fill-opacity="1"><g transform="translate(234.079383, 251.510104)"><g><path d="M 18.0625 -47.9375 C 20.0625 -51.445312 22.992188 -54.3125 26.859375 -56.53125 C 30.734375 -58.757812 35.144531 -59.875 40.09375 -59.875 C 45.394531 -59.875 50.160156 -58.617188 54.390625 -56.109375 C 58.617188 -53.597656 61.945312 -50.066406 64.375 -45.515625 C 66.8125 -40.960938 68.03125 -35.679688 68.03125 -29.671875 C 68.03125 -23.722656 66.8125 -18.414062 64.375 -13.75 C 61.945312 -9.09375 58.597656 -5.472656 54.328125 -2.890625 C 50.066406 -0.316406 45.320312 0.96875 40.09375 0.96875 C 35 0.96875 30.535156 -0.140625 26.703125 -2.359375 C 22.867188 -4.585938 19.988281 -7.421875 18.0625 -10.859375 L 18.0625 0 L 8.28125 0 L 8.28125 -79.53125 L 18.0625 -79.53125 Z M 58.046875 -29.671875 C 58.046875 -34.109375 57.148438 -37.972656 55.359375 -41.265625 C 53.566406 -44.566406 51.144531 -47.078125 48.09375 -48.796875 C 45.050781 -50.515625 41.703125 -51.375 38.046875 -51.375 C 34.460938 -51.375 31.148438 -50.492188 28.109375 -48.734375 C 25.066406 -46.984375 22.628906 -44.441406 20.796875 -41.109375 C 18.972656 -37.773438 18.0625 -33.925781 18.0625 -29.5625 C 18.0625 -25.113281 18.972656 -21.222656 20.796875 -17.890625 C 22.628906 -14.554688 25.066406 -12.007812 28.109375 -10.25 C 31.148438 -8.5 34.460938 -7.625 38.046875 -7.625 C 41.703125 -7.625 45.050781 -8.5 48.09375 -10.25 C 51.144531 -12.007812 53.566406 -14.554688 55.359375 -17.890625 C 57.148438 -21.222656 58.046875 -25.148438 58.046875 -29.671875 Z M 58.046875 -29.671875 "/></g></g></g><g fill="#ff0000" fill-opacity="1"><g transform="translate(306.734822, 251.510104)"><g><path d="M 29.125 0.96875 C 24.613281 0.96875 20.566406 0.195312 16.984375 -1.34375 C 13.398438 -2.882812 10.566406 -5.035156 8.484375 -7.796875 C 6.410156 -10.554688 5.265625 -13.726562 5.046875 -17.3125 L 15.15625 -17.3125 C 15.4375 -14.363281 16.8125 -11.957031 19.28125 -10.09375 C 21.757812 -8.238281 25.003906 -7.3125 29.015625 -7.3125 C 32.742188 -7.3125 35.679688 -8.132812 37.828125 -9.78125 C 39.984375 -11.425781 41.0625 -13.503906 41.0625 -16.015625 C 41.0625 -18.597656 39.914062 -20.515625 37.625 -21.765625 C 35.332031 -23.015625 31.785156 -24.25 26.984375 -25.46875 C 22.609375 -26.613281 19.039062 -27.773438 16.28125 -28.953125 C 13.519531 -30.140625 11.15625 -31.898438 9.1875 -34.234375 C 7.21875 -36.566406 6.234375 -39.628906 6.234375 -43.421875 C 6.234375 -46.429688 7.128906 -49.191406 8.921875 -51.703125 C 10.710938 -54.210938 13.253906 -56.203125 16.546875 -57.671875 C 19.847656 -59.140625 23.613281 -59.875 27.84375 -59.875 C 34.363281 -59.875 39.628906 -58.222656 43.640625 -54.921875 C 47.648438 -51.628906 49.800781 -47.113281 50.09375 -41.375 L 40.3125 -41.375 C 40.09375 -44.457031 38.851562 -46.929688 36.59375 -48.796875 C 34.34375 -50.660156 31.316406 -51.59375 27.515625 -51.59375 C 24.003906 -51.59375 21.207031 -50.835938 19.125 -49.328125 C 17.050781 -47.828125 16.015625 -45.859375 16.015625 -43.421875 C 16.015625 -41.484375 16.640625 -39.890625 17.890625 -38.640625 C 19.148438 -37.390625 20.726562 -36.382812 22.625 -35.625 C 24.519531 -34.875 27.15625 -34.035156 30.53125 -33.109375 C 34.75 -31.960938 38.1875 -30.832031 40.84375 -29.71875 C 43.5 -28.601562 45.773438 -26.9375 47.671875 -24.71875 C 49.566406 -22.5 50.550781 -19.597656 50.625 -16.015625 C 50.625 -12.785156 49.726562 -9.878906 47.9375 -7.296875 C 46.144531 -4.722656 43.617188 -2.703125 40.359375 -1.234375 C 37.097656 0.234375 33.351562 0.96875 29.125 0.96875 Z M 29.125 0.96875 "/></g></g></g></svg>