<svg xmlns="http://www.w3.org/2000/svg" xmlns:xlink="http://www.w3.org/1999/xlink" width="1080" zoomAndPan="magnify" viewBox="0 0 810 809.999993" height="1080" preserveAspectRatio="xMidYMid meet" version="1.0"><defs><g/><clipPath id="aec3546192"><path d="M 66.8125 73.324219 L 742.5625 73.324219 L 742.5625 733.597656 L 66.8125 733.597656 Z M 66.8125 73.324219 " clip-rule="nonzero"/></clipPath><clipPath id="9d9181a083"><path d="M 105.0625 73.324219 L 703.785156 73.324219 C 713.929688 73.324219 723.65625 77.355469 730.832031 84.527344 C 738.003906 91.699219 742.035156 101.429688 742.035156 111.574219 L 742.035156 695.347656 C 742.035156 705.492188 738.003906 715.21875 730.832031 722.394531 C 723.65625 729.566406 713.929688 733.597656 703.785156 733.597656 L 105.0625 733.597656 C 94.917969 733.597656 85.191406 729.566406 78.015625 722.394531 C 70.84375 715.21875 66.8125 705.492188 66.8125 695.347656 L 66.8125 111.574219 C 66.8125 101.429688 70.84375 91.699219 78.015625 84.527344 C 85.191406 77.355469 94.917969 73.324219 105.0625 73.324219 Z M 105.0625 73.324219 " clip-rule="nonzero"/></clipPath><clipPath id="aa5529e64a"><path d="M 66.8125 73.324219 L 742.035156 73.324219 L 742.035156 733.597656 L 66.8125 733.597656 Z M 66.8125 73.324219 " clip-rule="nonzero"/></clipPath><clipPath id="a52980d726"><path d="M 728 121 L 749.570312 121 L 749.570312 686 L 728 686 Z M 728 121 " clip-rule="nonzero"/></clipPath><clipPath id="de2a67119e"><path d="M 59.570312 121 L 81 121 L 81 686 L 59.570312 686 Z M 59.570312 121 " clip-rule="nonzero"/></clipPath><clipPath id="b373c83f2c"><path d="M 122 58.605469 L 687 58.605469 L 687 80 L 122 80 Z M 122 58.605469 " clip-rule="nonzero"/></clipPath><clipPath id="44fa78c3d1"><path d="M 122 727 L 687 727 L 687 748.605469 L 122 748.605469 Z M 122 727 " clip-rule="nonzero"/></clipPath><clipPath id="c4b10683b4"><path d="M 686 58.605469 L 749.570312 58.605469 L 749.570312 122 L 686 122 Z M 686 58.605469 " clip-rule="nonzero"/></clipPath><clipPath id="5f5676a1a6"><path d="M 59.570312 58.605469 L 123 58.605469 L 123 122 L 59.570312 122 Z M 59.570312 58.605469 " clip-rule="nonzero"/></clipPath><clipPath id="a997d5e4df"><path d="M 686 685 L 749.570312 685 L 749.570312 748.605469 L 686 748.605469 Z M 686 685 " clip-rule="nonzero"/></clipPath><clipPath id="370ede854c"><path d="M 59.570312 685 L 123 685 L 123 748.605469 L 59.570312 748.605469 Z M 59.570312 685 " clip-rule="nonzero"/></clipPath></defs><g clip-path="url(#aec3546192)"><g clip-path="url(#9d9181a083)"><path fill="#ffffff" d="M 66.8125 73.324219 L 742.5625 73.324219 L 742.5625 733.597656 L 66.8125 733.597656 Z M 66.8125 73.324219 " fill-opacity="1" fill-rule="nonzero"/></g></g><g clip-path="url(#aa5529e64a)"><path fill="#008000" d="M 66.8125 73.324219 L 742.5625 73.324219 L 742.5625 733.597656 L 66.8125 733.597656 Z M 66.8125 73.324219 " fill-opacity="1" fill-rule="nonzero"/></g><g clip-path="url(#a52980d726)"><path fill="#000000" d="M 728.667969 121.808594 L 749.277344 121.808594 L 749.277344 685.113281 L 728.667969 685.113281 Z M 728.667969 121.808594 " fill-opacity="1" fill-rule="nonzero"/></g><g clip-path="url(#de2a67119e)"><path fill="#000000" d="M 59.570312 121.808594 L 80.179688 121.808594 L 80.179688 685.113281 L 59.570312 685.113281 Z M 59.570312 121.808594 " fill-opacity="1" fill-rule="nonzero"/></g><g clip-path="url(#b373c83f2c)"><path fill="#000000" d="M 122.769531 58.605469 L 686.078125 58.605469 L 686.078125 79.214844 L 122.769531 79.214844 Z M 122.769531 58.605469 " fill-opacity="1" fill-rule="nonzero"/></g><g clip-path="url(#44fa78c3d1)"><path fill="#000000" d="M 122.769531 727.703125 L 686.078125 727.703125 L 686.078125 748.3125 L 122.769531 748.3125 Z M 122.769531 727.703125 " fill-opacity="1" fill-rule="nonzero"/></g><g clip-path="url(#c4b10683b4)"><path fill="#000000" d="M 728.667969 79.214844 L 728.667969 121.808594 L 749.277344 121.808594 L 749.277344 58.605469 L 686.078125 58.605469 L 686.078125 79.214844 Z M 728.667969 79.214844 " fill-opacity="1" fill-rule="nonzero"/></g><g clip-path="url(#5f5676a1a6)"><path fill="#000000" d="M 80.179688 79.214844 L 122.769531 79.214844 L 122.769531 58.605469 L 59.570312 58.605469 L 59.570312 121.808594 L 80.179688 121.808594 Z M 80.179688 79.214844 " fill-opacity="1" fill-rule="nonzero"/></g><g clip-path="url(#a997d5e4df)"><path fill="#000000" d="M 728.667969 727.703125 L 686.078125 727.703125 L 686.078125 748.3125 L 749.277344 748.3125 L 749.277344 685.113281 L 728.667969 685.113281 Z M 728.667969 727.703125 " fill-opacity="1" fill-rule="nonzero"/></g><g clip-path="url(#370ede854c)"><path fill="#000000" d="M 80.179688 727.703125 L 80.179688 685.113281 L 59.570312 685.113281 L 59.570312 748.3125 L 122.769531 748.3125 L 122.769531 727.703125 Z M 80.179688 727.703125 " fill-opacity="1" fill-rule="nonzero"/></g><g fill="#000000" fill-opacity="1"><g transform="translate(159.711983, 643.824124)"><g><path d="M 269.5 -491.40625 C 288.164062 -491.40625 303.679688 -490.238281 316.046875 -487.90625 C 328.410156 -485.570312 342.0625 -482.070312 357 -477.40625 C 358.394531 -476.9375 363.757812 -475.414062 373.09375 -472.84375 C 382.425781 -470.28125 392.226562 -469 402.5 -469 C 410.894531 -469 418.476562 -470.863281 425.25 -474.59375 C 432.019531 -478.332031 437.503906 -483.703125 441.703125 -490.703125 L 456.40625 -490.703125 L 420.703125 -333.90625 L 407.40625 -333.90625 C 406 -359.101562 400.046875 -381.265625 389.546875 -400.390625 C 379.046875 -419.523438 365.394531 -434.457031 348.59375 -445.1875 C 331.800781 -455.925781 313.132812 -461.296875 292.59375 -461.296875 C 270.664062 -461.296875 252.703125 -454.53125 238.703125 -441 C 224.703125 -427.46875 217.703125 -409.96875 217.703125 -388.5 C 217.703125 -368.894531 223.765625 -351.742188 235.890625 -337.046875 C 248.023438 -322.347656 266.695312 -304.265625 291.90625 -282.796875 C 312.90625 -265.066406 329.585938 -249.785156 341.953125 -236.953125 C 354.316406 -224.117188 364.929688 -208.71875 373.796875 -190.75 C 382.660156 -172.78125 387.09375 -152.363281 387.09375 -129.5 C 387.09375 -101.96875 379.859375 -77.582031 365.390625 -56.34375 C 350.929688 -35.113281 330.398438 -18.664062 303.796875 -7 C 277.203125 4.664062 246.40625 10.5 211.40625 10.5 C 195.070312 10.5 180.71875 9.566406 168.34375 7.703125 C 155.976562 5.835938 141.394531 3.035156 124.59375 -0.703125 C 122.257812 -1.171875 116.191406 -2.453125 106.390625 -4.546875 C 96.597656 -6.648438 87.035156 -7.703125 77.703125 -7.703125 C 67.429688 -7.703125 58.675781 -6.300781 51.4375 -3.5 C 44.207031 -0.695312 36.628906 3.96875 28.703125 10.5 L 14.703125 10.5 L 53.203125 -168.703125 L 65.796875 -168.703125 C 69.066406 -118.765625 82.484375 -80.84375 106.046875 -54.9375 C 129.617188 -29.039062 158.4375 -16.09375 192.5 -16.09375 C 219.5625 -16.09375 242.191406 -24.375 260.390625 -40.9375 C 278.597656 -57.507812 287.703125 -78.164062 287.703125 -102.90625 C 287.703125 -123.90625 281.398438 -142.453125 268.796875 -158.546875 C 256.203125 -174.648438 237.070312 -193.664062 211.40625 -215.59375 C 191.332031 -232.863281 175.226562 -247.796875 163.09375 -260.390625 C 150.96875 -272.992188 140.703125 -287.8125 132.296875 -304.84375 C 123.898438 -321.882812 119.703125 -340.671875 119.703125 -361.203125 C 119.703125 -384.535156 126.347656 -406.234375 139.640625 -426.296875 C 152.941406 -446.367188 171.023438 -462.238281 193.890625 -473.90625 C 216.765625 -485.570312 241.96875 -491.40625 269.5 -491.40625 Z M 269.5 -491.40625 "/></g></g></g></svg>