<svg xmlns="http://www.w3.org/2000/svg" xmlns:xlink="http://www.w3.org/1999/xlink" width="1080" zoomAndPan="magnify" viewBox="0 0 810 809.999993" height="1080" preserveAspectRatio="xMidYMid meet" version="1.0"><defs><g/><clipPath id="2806d6166e"><path d="M 66.8125 73.324219 L 742.5625 73.324219 L 742.5625 733.597656 L 66.8125 733.597656 Z M 66.8125 73.324219 " clip-rule="nonzero"/></clipPath><clipPath id="7871192fb4"><path d="M 105.0625 73.324219 L 703.785156 73.324219 C 713.929688 73.324219 723.65625 77.355469 730.832031 84.527344 C 738.003906 91.699219 742.035156 101.429688 742.035156 111.574219 L 742.035156 695.347656 C 742.035156 705.492188 738.003906 715.21875 730.832031 722.394531 C 723.65625 729.566406 713.929688 733.597656 703.785156 733.597656 L 105.0625 733.597656 C 94.917969 733.597656 85.191406 729.566406 78.015625 722.394531 C 70.84375 715.21875 66.8125 705.492188 66.8125 695.347656 L 66.8125 111.574219 C 66.8125 101.429688 70.84375 91.699219 78.015625 84.527344 C 85.191406 77.355469 94.917969 73.324219 105.0625 73.324219 Z M 105.0625 73.324219 " clip-rule="nonzero"/></clipPath><clipPath id="67cb6e0645"><path d="M 66.8125 73.324219 L 742.035156 73.324219 L 742.035156 733.597656 L 66.8125 733.597656 Z M 66.8125 73.324219 " clip-rule="nonzero"/></clipPath><clipPath id="3e60645897"><path d="M 728 121 L 749.570312 121 L 749.570312 686 L 728 686 Z M 728 121 " clip-rule="nonzero"/></clipPath><clipPath id="90b60be49b"><path d="M 59.570312 121 L 81 121 L 81 686 L 59.570312 686 Z M 59.570312 121 " clip-rule="nonzero"/></clipPath><clipPath id="c312d0f218"><path d="M 122 58.605469 L 687 58.605469 L 687 80 L 122 80 Z M 122 58.605469 " clip-rule="nonzero"/></clipPath><clipPath id="31cca466fd"><path d="M 122 727 L 687 727 L 687 748.605469 L 122 748.605469 Z M 122 727 " clip-rule="nonzero"/></clipPath><clipPath id="2f35b8b38e"><path d="M 686 58.605469 L 749.570312 58.605469 L 749.570312 122 L 686 122 Z M 686 58.605469 " clip-rule="nonzero"/></clipPath><clipPath id="6bb1149bb5"><path d="M 59.570312 58.605469 L 123 58.605469 L 123 122 L 59.570312 122 Z M 59.570312 58.605469 " clip-rule="nonzero"/></clipPath><clipPath id="e42559171c"><path d="M 686 685 L 749.570312 685 L 749.570312 748.605469 L 686 748.605469 Z M 686 685 " clip-rule="nonzero"/></clipPath><clipPath id="e37db5c593"><path d="M 59.570312 685 L 123 685 L 123 748.605469 L 59.570312 748.605469 Z M 59.570312 685 " clip-rule="nonzero"/></clipPath></defs><g clip-path="url(#2806d6166e)"><g clip-path="url(#7871192fb4)"><path fill="#ffffff" d="M 66.8125 73.324219 L 742.5625 73.324219 L 742.5625 733.597656 L 66.8125 733.597656 Z M 66.8125 73.324219 " fill-opacity="1" fill-rule="nonzero"/></g></g><g clip-path="url(#67cb6e0645)"><path fill="#87cb28" d="M 66.8125 73.324219 L 742.5625 73.324219 L 742.5625 733.597656 L 66.8125 733.597656 Z M 66.8125 73.324219 " fill-opacity="1" fill-rule="nonzero"/></g><g fill="#000000" fill-opacity="1"><g transform="translate(137.669015, 643.824124)"><g><path d="M 478.796875 -357.703125 L 466.203125 -357.703125 C 466.203125 -366.097656 465.96875 -371.695312 465.5 -374.5 C 462.695312 -398.769531 453.128906 -416.96875 436.796875 -429.09375 C 420.460938 -441.226562 400.863281 -448 378 -449.40625 L 270.90625 -77 C 266.238281 -60.195312 263.90625 -49.460938 263.90625 -44.796875 C 263.90625 -34.066406 267.753906 -26.015625 275.453125 -20.640625 C 283.148438 -15.273438 295.632812 -12.59375 312.90625 -12.59375 L 329.703125 -12.59375 L 326.203125 0 L 77.703125 0 L 81.203125 -12.59375 C 105.003906 -13.0625 121.921875 -15.28125 131.953125 -19.25 C 141.984375 -23.21875 149.445312 -30.332031 154.34375 -40.59375 C 159.25 -50.863281 165.898438 -70.695312 174.296875 -100.09375 L 274.40625 -449.40625 L 268.796875 -449.40625 C 244.992188 -449.40625 220.144531 -441.585938 194.25 -425.953125 C 168.351562 -410.316406 144.203125 -387.566406 121.796875 -357.703125 L 109.203125 -357.703125 L 144.90625 -480.90625 L 514.5 -480.90625 Z M 478.796875 -357.703125 "/></g></g></g><g clip-path="url(#3e60645897)"><path fill="#000000" d="M 728.667969 121.808594 L 749.277344 121.808594 L 749.277344 685.113281 L 728.667969 685.113281 Z M 728.667969 121.808594 " fill-opacity="1" fill-rule="nonzero"/></g><g clip-path="url(#90b60be49b)"><path fill="#000000" d="M 59.570312 121.808594 L 80.179688 121.808594 L 80.179688 685.113281 L 59.570312 685.113281 Z M 59.570312 121.808594 " fill-opacity="1" fill-rule="nonzero"/></g><g clip-path="url(#c312d0f218)"><path fill="#000000" d="M 122.769531 58.605469 L 686.078125 58.605469 L 686.078125 79.214844 L 122.769531 79.214844 Z M 122.769531 58.605469 " fill-opacity="1" fill-rule="nonzero"/></g><g clip-path="url(#31cca466fd)"><path fill="#000000" d="M 122.769531 727.703125 L 686.078125 727.703125 L 686.078125 748.3125 L 122.769531 748.3125 Z M 122.769531 727.703125 " fill-opacity="1" fill-rule="nonzero"/></g><g clip-path="url(#2f35b8b38e)"><path fill="#000000" d="M 728.667969 79.214844 L 728.667969 121.808594 L 749.277344 121.808594 L 749.277344 58.605469 L 686.078125 58.605469 L 686.078125 79.214844 Z M 728.667969 79.214844 " fill-opacity="1" fill-rule="nonzero"/></g><g clip-path="url(#6bb1149bb5)"><path fill="#000000" d="M 80.179688 79.214844 L 122.769531 79.214844 L 122.769531 58.605469 L 59.570312 58.605469 L 59.570312 121.808594 L 80.179688 121.808594 Z M 80.179688 79.214844 " fill-opacity="1" fill-rule="nonzero"/></g><g clip-path="url(#e42559171c)"><path fill="#000000" d="M 728.667969 727.703125 L 686.078125 727.703125 L 686.078125 748.3125 L 749.277344 748.3125 L 749.277344 685.113281 L 728.667969 685.113281 Z M 728.667969 727.703125 " fill-opacity="1" fill-rule="nonzero"/></g><g clip-path="url(#e37db5c593)"><path fill="#000000" d="M 80.179688 727.703125 L 80.179688 685.113281 L 59.570312 685.113281 L 59.570312 748.3125 L 122.769531 748.3125 L 122.769531 727.703125 Z M 80.179688 727.703125 " fill-opacity="1" fill-rule="nonzero"/></g></svg>