<svg xmlns="http://www.w3.org/2000/svg" xmlns:xlink="http://www.w3.org/1999/xlink" width="1080" zoomAndPan="magnify" viewBox="0 0 810 809.999993" height="1080" preserveAspectRatio="xMidYMid meet" version="1.0"><defs><g/><clipPath id="887303ae71"><path d="M 405 0 C 181.324219 0 0 181.324219 0 405 C 0 628.675781 181.324219 810 405 810 C 628.675781 810 810 628.675781 810 405 C 810 181.324219 628.675781 0 405 0 Z M 405 0 " clip-rule="nonzero"/></clipPath></defs><g clip-path="url(#887303ae71)"><rect x="-81" width="972" fill="#ffffff" y="-80.999999" height="971.999992" fill-opacity="1"/><path stroke-linecap="butt" transform="matrix(0.75, 0, 0, 0.75, 0.0000035, 0.00002)" fill="none" stroke-linejoin="miter" d="M 540.000023 -0.0000266667 C 241.765632 -0.0000266667 -0.00000466667 241.76561 -0.00000466667 540.000001 C -0.00000466667 838.234391 241.765632 1080.000028 540.000023 1080.000028 C 838.234413 1080.000028 1080.00005 838.234391 1080.00005 540.000001 C 1080.00005 241.76561 838.234413 -0.0000266667 540.000023 -0.0000266667 Z M 540.000023 -0.0000266667 " stroke="#7834d7" stroke-width="42" stroke-opacity="1" stroke-miterlimit="4"/></g><g fill="#7834d7" fill-opacity="1"><g transform="translate(42.611167, 643.824124)"><g><path d="M 478.796875 -357.703125 L 466.203125 -357.703125 C 466.203125 -366.097656 465.96875 -371.695312 465.5 -374.5 C 462.695312 -398.769531 453.128906 -416.96875 436.796875 -429.09375 C 420.460938 -441.226562 400.863281 -448 378 -449.40625 L 270.90625 -77 C 266.238281 -60.195312 263.90625 -49.460938 263.90625 -44.796875 C 263.90625 -34.066406 267.753906 -26.015625 275.453125 -20.640625 C 283.148438 -15.273438 295.632812 -12.59375 312.90625 -12.59375 L 329.703125 -12.59375 L 326.203125 0 L 77.703125 0 L 81.203125 -12.59375 C 105.003906 -13.0625 121.921875 -15.28125 131.953125 -19.25 C 141.984375 -23.21875 149.445312 -30.332031 154.34375 -40.59375 C 159.25 -50.863281 165.898438 -70.695312 174.296875 -100.09375 L 274.40625 -449.40625 L 268.796875 -449.40625 C 244.992188 -449.40625 220.144531 -441.585938 194.25 -425.953125 C 168.351562 -410.316406 144.203125 -387.566406 121.796875 -357.703125 L 109.203125 -357.703125 L 144.90625 -480.90625 L 514.5 -480.90625 Z M 478.796875 -357.703125 "/></g></g></g><g fill="#7834d7" fill-opacity="1"><g transform="translate(555.850458, 281.730591)"><g><path d="M 63.734375 -179.671875 C 67.992188 -179.671875 71.660156 -177.960938 74.734375 -174.546875 C 77.804688 -171.140625 79.34375 -166.960938 79.34375 -162.015625 C 79.34375 -158.765625 78.828125 -155.601562 77.796875 -152.53125 C 76.773438 -149.46875 75.242188 -145.460938 73.203125 -140.515625 C 70.984375 -135.222656 69.359375 -130.867188 68.328125 -127.453125 C 67.304688 -124.046875 66.710938 -120.460938 66.546875 -116.703125 C 71.316406 -117.210938 75.28125 -118.109375 78.4375 -119.390625 C 81.601562 -120.671875 84.972656 -122.25 88.546875 -124.125 C 91.453125 -125.664062 93.800781 -126.773438 95.59375 -127.453125 C 97.382812 -128.140625 99.472656 -128.484375 101.859375 -128.484375 C 105.953125 -128.484375 109.445312 -127.070312 112.34375 -124.25 C 115.25 -121.4375 116.703125 -118.066406 116.703125 -114.140625 C 116.703125 -110.222656 115.296875 -106.8125 112.484375 -103.90625 C 109.671875 -101.007812 106.21875 -99.5625 102.125 -99.5625 C 99.5625 -99.5625 97.34375 -99.898438 95.46875 -100.578125 C 93.59375 -101.265625 91.117188 -102.460938 88.046875 -104.171875 C 84.628906 -106.210938 81.34375 -107.832031 78.1875 -109.03125 C 75.03125 -110.226562 71.148438 -110.992188 66.546875 -111.328125 C 66.710938 -105.191406 67.691406 -100.203125 69.484375 -96.359375 C 71.273438 -92.523438 74.898438 -87.28125 80.359375 -80.625 C 75.921875 -69.363281 72.550781 -53.921875 70.25 -34.296875 C 67.945312 -14.671875 66.796875 13.394531 66.796875 49.90625 L 61.171875 49.90625 C 60.992188 12.707031 59.753906 -15.484375 57.453125 -34.671875 C 55.148438 -53.867188 51.78125 -69.1875 47.34375 -80.625 C 52.289062 -86.59375 55.53125 -91.28125 57.0625 -94.6875 C 58.601562 -98.101562 59.972656 -103.648438 61.171875 -111.328125 C 56.390625 -110.816406 52.378906 -109.960938 49.140625 -108.765625 C 45.898438 -107.578125 42.742188 -105.957031 39.671875 -103.90625 C 36.941406 -102.375 34.632812 -101.222656 32.75 -100.453125 C 30.875 -99.679688 28.742188 -99.296875 26.359375 -99.296875 C 22.097656 -99.296875 18.515625 -100.703125 15.609375 -103.515625 C 12.710938 -106.335938 11.265625 -109.796875 11.265625 -113.890625 C 11.265625 -117.984375 12.671875 -121.394531 15.484375 -124.125 C 18.296875 -126.851562 21.835938 -128.21875 26.109375 -128.21875 C 28.835938 -128.21875 31.140625 -127.875 33.015625 -127.1875 C 34.890625 -126.507812 37.363281 -125.320312 40.4375 -123.625 C 44.1875 -121.570312 47.46875 -119.988281 50.28125 -118.875 C 53.101562 -117.769531 56.734375 -117.046875 61.171875 -116.703125 C 61.171875 -120.460938 60.65625 -123.921875 59.625 -127.078125 C 58.601562 -130.234375 56.984375 -134.367188 54.765625 -139.484375 C 52.722656 -143.753906 51.144531 -147.59375 50.03125 -151 C 48.925781 -154.414062 48.375 -158 48.375 -161.75 C 48.375 -166.875 49.820312 -171.140625 52.71875 -174.546875 C 55.625 -177.960938 59.296875 -179.671875 63.734375 -179.671875 Z M 63.734375 -179.671875 "/></g></g></g></svg>