<svg xmlns="http://www.w3.org/2000/svg" xmlns:xlink="http://www.w3.org/1999/xlink" width="1080" zoomAndPan="magnify" viewBox="0 0 810 809.999993" height="1080" preserveAspectRatio="xMidYMid meet" version="1.0"><defs><g/><clipPath id="05d0e06633"><path d="M 405 0 C 181.324219 0 0 181.324219 0 405 C 0 628.675781 181.324219 810 405 810 C 628.675781 810 810 628.675781 810 405 C 810 181.324219 628.675781 0 405 0 Z M 405 0 " clip-rule="nonzero"/></clipPath></defs><g clip-path="url(#05d0e06633)"><rect x="-81" width="972" fill="#ffffff" y="-80.999999" height="971.999992" fill-opacity="1"/><path stroke-linecap="butt" transform="matrix(0.75, 0, 0, 0.75, 0.0000035, 0.00002)" fill="none" stroke-linejoin="miter" d="M 540.000023 -0.0000266667 C 241.765632 -0.0000266667 -0.00000466667 241.76561 -0.00000466667 540.000001 C -0.00000466667 838.234391 241.765632 1080.000028 540.000023 1080.000028 C 838.234413 1080.000028 1080.00005 838.234391 1080.00005 540.000001 C 1080.00005 241.76561 838.234413 -0.0000266667 540.000023 -0.0000266667 Z M 540.000023 -0.0000266667 " stroke="#7834d7" stroke-width="42" stroke-opacity="1" stroke-miterlimit="4"/></g><g fill="#7834d7" fill-opacity="1"><g transform="translate(133.652486, 643.824124)"><g><path d="M 478.796875 -357.703125 L 466.203125 -357.703125 C 466.203125 -366.097656 465.96875 -371.695312 465.5 -374.5 C 462.695312 -398.769531 453.128906 -416.96875 436.796875 -429.09375 C 420.460938 -441.226562 400.863281 -448 378 -449.40625 L 270.90625 -77 C 266.238281 -60.195312 263.90625 -49.460938 263.90625 -44.796875 C 263.90625 -34.066406 267.753906 -26.015625 275.453125 -20.640625 C 283.148438 -15.273438 295.632812 -12.59375 312.90625 -12.59375 L 329.703125 -12.59375 L 326.203125 0 L 77.703125 0 L 81.203125 -12.59375 C 105.003906 -13.0625 121.921875 -15.28125 131.953125 -19.25 C 141.984375 -23.21875 149.445312 -30.332031 154.34375 -40.59375 C 159.25 -50.863281 165.898438 -70.695312 174.296875 -100.09375 L 274.40625 -449.40625 L 268.796875 -449.40625 C 244.992188 -449.40625 220.144531 -441.585938 194.25 -425.953125 C 168.351562 -410.316406 144.203125 -387.566406 121.796875 -357.703125 L 109.203125 -357.703125 L 144.90625 -480.90625 L 514.5 -480.90625 Z M 478.796875 -357.703125 "/></g></g></g></svg>