<svg xmlns="http://www.w3.org/2000/svg" xmlns:xlink="http://www.w3.org/1999/xlink" width="1080" zoomAndPan="magnify" viewBox="0 0 810 809.999993" height="1080" preserveAspectRatio="xMidYMid meet" version="1.0"><defs><g/><clipPath id="29229d0003"><path d="M 66.8125 73.324219 L 742.5625 73.324219 L 742.5625 733.597656 L 66.8125 733.597656 Z M 66.8125 73.324219 " clip-rule="nonzero"/></clipPath><clipPath id="f481737eeb"><path d="M 105.0625 73.324219 L 703.785156 73.324219 C 713.929688 73.324219 723.65625 77.355469 730.832031 84.527344 C 738.003906 91.699219 742.035156 101.429688 742.035156 111.574219 L 742.035156 695.347656 C 742.035156 705.492188 738.003906 715.21875 730.832031 722.394531 C 723.65625 729.566406 713.929688 733.597656 703.785156 733.597656 L 105.0625 733.597656 C 94.917969 733.597656 85.191406 729.566406 78.015625 722.394531 C 70.84375 715.21875 66.8125 705.492188 66.8125 695.347656 L 66.8125 111.574219 C 66.8125 101.429688 70.84375 91.699219 78.015625 84.527344 C 85.191406 77.355469 94.917969 73.324219 105.0625 73.324219 Z M 105.0625 73.324219 " clip-rule="nonzero"/></clipPath><clipPath id="478a6f268c"><path d="M 66.8125 73.324219 L 742.035156 73.324219 L 742.035156 733.597656 L 66.8125 733.597656 Z M 66.8125 73.324219 " clip-rule="nonzero"/></clipPath><clipPath id="1ce1674f87"><path d="M 728 121 L 749.570312 121 L 749.570312 686 L 728 686 Z M 728 121 " clip-rule="nonzero"/></clipPath><clipPath id="14ae776d0b"><path d="M 59.570312 121 L 81 121 L 81 686 L 59.570312 686 Z M 59.570312 121 " clip-rule="nonzero"/></clipPath><clipPath id="9b815ac96c"><path d="M 122 58.605469 L 687 58.605469 L 687 80 L 122 80 Z M 122 58.605469 " clip-rule="nonzero"/></clipPath><clipPath id="e006a08079"><path d="M 122 727 L 687 727 L 687 748.605469 L 122 748.605469 Z M 122 727 " clip-rule="nonzero"/></clipPath><clipPath id="5ddc4909e2"><path d="M 686 58.605469 L 749.570312 58.605469 L 749.570312 122 L 686 122 Z M 686 58.605469 " clip-rule="nonzero"/></clipPath><clipPath id="f813c567f0"><path d="M 59.570312 58.605469 L 123 58.605469 L 123 122 L 59.570312 122 Z M 59.570312 58.605469 " clip-rule="nonzero"/></clipPath><clipPath id="cef46e7403"><path d="M 686 685 L 749.570312 685 L 749.570312 748.605469 L 686 748.605469 Z M 686 685 " clip-rule="nonzero"/></clipPath><clipPath id="f5daf7b0d8"><path d="M 59.570312 685 L 123 685 L 123 748.605469 L 59.570312 748.605469 Z M 59.570312 685 " clip-rule="nonzero"/></clipPath></defs><g clip-path="url(#29229d0003)"><g clip-path="url(#f481737eeb)"><path fill="#ffffff" d="M 66.8125 73.324219 L 742.5625 73.324219 L 742.5625 733.597656 L 66.8125 733.597656 Z M 66.8125 73.324219 " fill-opacity="1" fill-rule="nonzero"/></g></g><g clip-path="url(#478a6f268c)"><path fill="#38b6ff" d="M 66.8125 73.324219 L 742.5625 73.324219 L 742.5625 733.597656 L 66.8125 733.597656 Z M 66.8125 73.324219 " fill-opacity="1" fill-rule="nonzero"/></g><g fill="#000000" fill-opacity="1"><g transform="translate(115.441549, 643.824124)"><g><path d="M 312.90625 -468.296875 C 301.695312 -466.898438 292.941406 -463.285156 286.640625 -457.453125 C 280.347656 -451.617188 277.203125 -444.269531 277.203125 -435.40625 C 277.203125 -424.664062 281.164062 -408.097656 289.09375 -385.703125 L 319.90625 -297.5 L 403.203125 -381.5 C 416.265625 -394.5625 425.59375 -404.941406 431.1875 -412.640625 C 436.789062 -420.347656 439.59375 -428.867188 439.59375 -438.203125 C 439.59375 -447.535156 436.675781 -454.882812 430.84375 -460.25 C 425.007812 -465.613281 416.960938 -468.296875 406.703125 -468.296875 L 410.203125 -480.90625 L 559.296875 -480.90625 L 555.796875 -468.296875 C 545.992188 -467.367188 532.457031 -460.601562 515.1875 -448 C 497.925781 -435.394531 482.765625 -422.5625 469.703125 -409.5 L 329.703125 -270.203125 L 399.703125 -77.703125 C 408.097656 -53.898438 416.613281 -37.097656 425.25 -27.296875 C 433.882812 -17.492188 443.800781 -12.59375 455 -12.59375 L 451.5 0 L 252 0 L 256.203125 -12.59375 C 269.265625 -12.59375 279.410156 -15.742188 286.640625 -22.046875 C 293.878906 -28.347656 297.5 -37.332031 297.5 -49 C 297.5 -57.394531 296.210938 -66.257812 293.640625 -75.59375 C 291.078125 -84.925781 287.460938 -96.128906 282.796875 -109.203125 L 252.703125 -193.203125 L 153.296875 -92.40625 C 143.035156 -82.132812 135.453125 -73.265625 130.546875 -65.796875 C 125.648438 -58.328125 123.203125 -51.09375 123.203125 -44.09375 C 123.203125 -34.300781 126.816406 -26.71875 134.046875 -21.34375 C 141.285156 -15.976562 151.90625 -13.0625 165.90625 -12.59375 L 162.40625 0 L 4.90625 0 L 8.40625 -12.59375 C 33.132812 -18.664062 65.097656 -41.769531 104.296875 -81.90625 L 241.5 -220.5 L 182.703125 -385 C 175.703125 -404.601562 169.632812 -419.769531 164.5 -430.5 C 159.363281 -441.226562 152.242188 -450.207031 143.140625 -457.4375 C 134.046875 -464.675781 122.5 -468.296875 108.5 -468.296875 L 112 -480.90625 L 316.40625 -480.90625 Z M 312.90625 -468.296875 "/></g></g></g><g clip-path="url(#1ce1674f87)"><path fill="#000000" d="M 728.667969 121.808594 L 749.277344 121.808594 L 749.277344 685.113281 L 728.667969 685.113281 Z M 728.667969 121.808594 " fill-opacity="1" fill-rule="nonzero"/></g><g clip-path="url(#14ae776d0b)"><path fill="#000000" d="M 59.570312 121.808594 L 80.179688 121.808594 L 80.179688 685.113281 L 59.570312 685.113281 Z M 59.570312 121.808594 " fill-opacity="1" fill-rule="nonzero"/></g><g clip-path="url(#9b815ac96c)"><path fill="#000000" d="M 122.769531 58.605469 L 686.078125 58.605469 L 686.078125 79.214844 L 122.769531 79.214844 Z M 122.769531 58.605469 " fill-opacity="1" fill-rule="nonzero"/></g><g clip-path="url(#e006a08079)"><path fill="#000000" d="M 122.769531 727.703125 L 686.078125 727.703125 L 686.078125 748.3125 L 122.769531 748.3125 Z M 122.769531 727.703125 " fill-opacity="1" fill-rule="nonzero"/></g><g clip-path="url(#5ddc4909e2)"><path fill="#000000" d="M 728.667969 79.214844 L 728.667969 121.808594 L 749.277344 121.808594 L 749.277344 58.605469 L 686.078125 58.605469 L 686.078125 79.214844 Z M 728.667969 79.214844 " fill-opacity="1" fill-rule="nonzero"/></g><g clip-path="url(#f813c567f0)"><path fill="#000000" d="M 80.179688 79.214844 L 122.769531 79.214844 L 122.769531 58.605469 L 59.570312 58.605469 L 59.570312 121.808594 L 80.179688 121.808594 Z M 80.179688 79.214844 " fill-opacity="1" fill-rule="nonzero"/></g><g clip-path="url(#cef46e7403)"><path fill="#000000" d="M 728.667969 727.703125 L 686.078125 727.703125 L 686.078125 748.3125 L 749.277344 748.3125 L 749.277344 685.113281 L 728.667969 685.113281 Z M 728.667969 727.703125 " fill-opacity="1" fill-rule="nonzero"/></g><g clip-path="url(#f5daf7b0d8)"><path fill="#000000" d="M 80.179688 727.703125 L 80.179688 685.113281 L 59.570312 685.113281 L 59.570312 748.3125 L 122.769531 748.3125 L 122.769531 727.703125 Z M 80.179688 727.703125 " fill-opacity="1" fill-rule="nonzero"/></g></svg>