<svg xmlns="http://www.w3.org/2000/svg" xmlns:xlink="http://www.w3.org/1999/xlink" width="1080" zoomAndPan="magnify" viewBox="0 0 810 809.999993" height="1080" preserveAspectRatio="xMidYMid meet" version="1.0"><defs><g/><clipPath id="aaa2197444"><path d="M 405 0 C 181.324219 0 0 181.324219 0 405 C 0 628.675781 181.324219 810 405 810 C 628.675781 810 810 628.675781 810 405 C 810 181.324219 628.675781 0 405 0 Z M 405 0 " clip-rule="nonzero"/></clipPath></defs><g clip-path="url(#aaa2197444)"><rect x="-81" width="972" fill="#ffffff" y="-80.999999" height="971.999992" fill-opacity="1"/><path stroke-linecap="butt" transform="matrix(0.75, 0, 0, 0.75, 0.0000035, 0.00002)" fill="none" stroke-linejoin="miter" d="M 540.000023 -0.0000266667 C 241.765632 -0.0000266667 -0.00000466667 241.76561 -0.00000466667 540.000001 C -0.00000466667 838.234391 241.765632 1080.000028 540.000023 1080.000028 C 838.234413 1080.000028 1080.00005 838.234391 1080.00005 540.000001 C 1080.00005 241.76561 838.234413 -0.0000266667 540.000023 -0.0000266667 Z M 540.000023 -0.0000266667 " stroke="#c74900" stroke-width="42" stroke-opacity="1" stroke-miterlimit="4"/></g><g fill="#c74900" fill-opacity="1"><g transform="translate(115.441549, 643.824124)"><g><path d="M 312.90625 -468.296875 C 301.695312 -466.898438 292.941406 -463.285156 286.640625 -457.453125 C 280.347656 -451.617188 277.203125 -444.269531 277.203125 -435.40625 C 277.203125 -424.664062 281.164062 -408.097656 289.09375 -385.703125 L 319.90625 -297.5 L 403.203125 -381.5 C 416.265625 -394.5625 425.59375 -404.941406 431.1875 -412.640625 C 436.789062 -420.347656 439.59375 -428.867188 439.59375 -438.203125 C 439.59375 -447.535156 436.675781 -454.882812 430.84375 -460.25 C 425.007812 -465.613281 416.960938 -468.296875 406.703125 -468.296875 L 410.203125 -480.90625 L 559.296875 -480.90625 L 555.796875 -468.296875 C 545.992188 -467.367188 532.457031 -460.601562 515.1875 -448 C 497.925781 -435.394531 482.765625 -422.5625 469.703125 -409.5 L 329.703125 -270.203125 L 399.703125 -77.703125 C 408.097656 -53.898438 416.613281 -37.097656 425.25 -27.296875 C 433.882812 -17.492188 443.800781 -12.59375 455 -12.59375 L 451.5 0 L 252 0 L 256.203125 -12.59375 C 269.265625 -12.59375 279.410156 -15.742188 286.640625 -22.046875 C 293.878906 -28.347656 297.5 -37.332031 297.5 -49 C 297.5 -57.394531 296.210938 -66.257812 293.640625 -75.59375 C 291.078125 -84.925781 287.460938 -96.128906 282.796875 -109.203125 L 252.703125 -193.203125 L 153.296875 -92.40625 C 143.035156 -82.132812 135.453125 -73.265625 130.546875 -65.796875 C 125.648438 -58.328125 123.203125 -51.09375 123.203125 -44.09375 C 123.203125 -34.300781 126.816406 -26.71875 134.046875 -21.34375 C 141.285156 -15.976562 151.90625 -13.0625 165.90625 -12.59375 L 162.40625 0 L 4.90625 0 L 8.40625 -12.59375 C 33.132812 -18.664062 65.097656 -41.769531 104.296875 -81.90625 L 241.5 -220.5 L 182.703125 -385 C 175.703125 -404.601562 169.632812 -419.769531 164.5 -430.5 C 159.363281 -441.226562 152.242188 -450.207031 143.140625 -457.4375 C 134.046875 -464.675781 122.5 -468.296875 108.5 -468.296875 L 112 -480.90625 L 316.40625 -480.90625 Z M 312.90625 -468.296875 "/></g></g></g></svg>