<svg xmlns="http://www.w3.org/2000/svg" xmlns:xlink="http://www.w3.org/1999/xlink" width="1080" zoomAndPan="magnify" viewBox="0 0 810 809.999993" height="1080" preserveAspectRatio="xMidYMid meet" version="1.0"><defs><g/><clipPath id="acc788504e"><path d="M 405 0 C 181.324219 0 0 181.324219 0 405 C 0 628.675781 181.324219 810 405 810 C 628.675781 810 810 628.675781 810 405 C 810 181.324219 628.675781 0 405 0 Z M 405 0 " clip-rule="nonzero"/></clipPath></defs><g clip-path="url(#acc788504e)"><rect x="-81" width="972" fill="#000000" y="-80.999999" height="971.999992" fill-opacity="1"/><path stroke-linecap="butt" transform="matrix(0.75, 0, 0, 0.75, 0.0000035, 0.00002)" fill="none" stroke-linejoin="miter" d="M 540.000023 -0.0000266667 C 241.765632 -0.0000266667 -0.00000466667 241.76561 -0.00000466667 540.000001 C -0.00000466667 838.234391 241.765632 1080.000028 540.000023 1080.000028 C 838.234413 1080.000028 1080.00005 838.234391 1080.00005 540.000001 C 1080.00005 241.76561 838.234413 -0.0000266667 540.000023 -0.0000266667 Z M 540.000023 -0.0000266667 " stroke="#000000" stroke-width="42" stroke-opacity="1" stroke-miterlimit="4"/></g><g fill="#ffffff" fill-opacity="1"><g transform="translate(115.441549, 643.824124)"><g><path d="M 333.90625 -468.296875 C 291.90625 -468.296875 270.90625 -454.765625 270.90625 -427.703125 C 270.90625 -415.566406 273.238281 -402.5 277.90625 -388.5 L 324.796875 -243.59375 L 447.296875 -393.40625 C 453.367188 -401.332031 457.921875 -408.910156 460.953125 -416.140625 C 463.984375 -423.378906 465.5 -429.566406 465.5 -434.703125 C 465.5 -444.503906 461.648438 -452.4375 453.953125 -458.5 C 446.253906 -464.5625 434.238281 -467.828125 417.90625 -468.296875 L 421.40625 -480.90625 L 560 -480.90625 L 556.5 -468.296875 C 547.164062 -464.097656 537.945312 -457.566406 528.84375 -448.703125 C 519.75 -439.835938 510.066406 -428.867188 499.796875 -415.796875 L 333.203125 -210 L 295.40625 -78.40625 C 290.269531 -61.601562 287.703125 -49.9375 287.703125 -43.40625 C 287.703125 -30.800781 293.066406 -22.515625 303.796875 -18.546875 C 314.535156 -14.578125 329.238281 -12.59375 347.90625 -12.59375 L 343.703125 0 L 105.703125 0 L 109.90625 -12.59375 C 126.695312 -12.59375 139.644531 -13.992188 148.75 -16.796875 C 157.851562 -19.597656 165.320312 -25.316406 171.15625 -33.953125 C 176.988281 -42.585938 182.703125 -56.46875 188.296875 -75.59375 L 228.90625 -217 L 171.5 -396.203125 C 164.96875 -415.796875 159.484375 -429.910156 155.046875 -438.546875 C 150.617188 -447.179688 144.4375 -453.832031 136.5 -458.5 C 128.5625 -463.164062 116.660156 -466.429688 100.796875 -468.296875 L 104.296875 -480.90625 L 333.90625 -480.90625 Z M 333.90625 -468.296875 "/></g></g></g></svg>