<svg xmlns="http://www.w3.org/2000/svg" xmlns:xlink="http://www.w3.org/1999/xlink" width="1080" zoomAndPan="magnify" viewBox="0 0 810 809.999993" height="1080" preserveAspectRatio="xMidYMid meet" version="1.0"><defs><g/><clipPath id="5642cef3db"><path d="M 405 0 C 181.324219 0 0 181.324219 0 405 C 0 628.675781 181.324219 810 405 810 C 628.675781 810 810 628.675781 810 405 C 810 181.324219 628.675781 0 405 0 Z M 405 0 " clip-rule="nonzero"/></clipPath></defs><g clip-path="url(#5642cef3db)"><rect x="-81" width="972" fill="#000000" y="-80.999999" height="971.999992" fill-opacity="1"/><path stroke-linecap="butt" transform="matrix(0.75, 0, 0, 0.75, 0.0000035, 0.00002)" fill="none" stroke-linejoin="miter" d="M 540.000023 -0.0000266667 C 241.765632 -0.0000266667 -0.00000466667 241.76561 -0.00000466667 540.000001 C -0.00000466667 838.234391 241.765632 1080.000028 540.000023 1080.000028 C 838.234413 1080.000028 1080.00005 838.234391 1080.00005 540.000001 C 1080.00005 241.76561 838.234413 -0.0000266667 540.000023 -0.0000266667 Z M 540.000023 -0.0000266667 " stroke="#2a4c09" stroke-width="42" stroke-opacity="1" stroke-miterlimit="4"/></g><g fill="#2a4c09" fill-opacity="1"><g transform="translate(115.441549, 643.824124)"><g><path d="M 549.5 -468.296875 L 161.703125 -26.59375 L 217 -26.59375 C 253.394531 -26.59375 283.84375 -29.742188 308.34375 -36.046875 C 332.84375 -42.347656 355.476562 -52.265625 376.25 -65.796875 C 397.019531 -79.328125 422.101562 -99.628906 451.5 -126.703125 L 463.40625 -126.703125 L 415.09375 0 L 18.90625 0 L 18.90625 -13.296875 L 408.09375 -454.296875 L 324.09375 -454.296875 C 277.425781 -454.296875 239.976562 -446.828125 211.75 -431.890625 C 183.519531 -416.960938 159.835938 -395.03125 140.703125 -366.09375 L 128.09375 -366.09375 L 165.203125 -480.90625 L 553 -480.90625 Z M 549.5 -468.296875 "/></g></g></g></svg>