<svg xmlns="http://www.w3.org/2000/svg" xmlns:xlink="http://www.w3.org/1999/xlink" width="1080" zoomAndPan="magnify" viewBox="0 0 810 809.999993" height="1080" preserveAspectRatio="xMidYMid meet" version="1.0"><defs><g/><clipPath id="0e2090ca41"><path d="M 66.8125 73.324219 L 742.5625 73.324219 L 742.5625 733.597656 L 66.8125 733.597656 Z M 66.8125 73.324219 " clip-rule="nonzero"/></clipPath><clipPath id="754e3bcd07"><path d="M 105.0625 73.324219 L 703.785156 73.324219 C 713.929688 73.324219 723.65625 77.355469 730.832031 84.527344 C 738.003906 91.699219 742.035156 101.429688 742.035156 111.574219 L 742.035156 695.347656 C 742.035156 705.492188 738.003906 715.21875 730.832031 722.394531 C 723.65625 729.566406 713.929688 733.597656 703.785156 733.597656 L 105.0625 733.597656 C 94.917969 733.597656 85.191406 729.566406 78.015625 722.394531 C 70.84375 715.21875 66.8125 705.492188 66.8125 695.347656 L 66.8125 111.574219 C 66.8125 101.429688 70.84375 91.699219 78.015625 84.527344 C 85.191406 77.355469 94.917969 73.324219 105.0625 73.324219 Z M 105.0625 73.324219 " clip-rule="nonzero"/></clipPath><clipPath id="42c5bc74ac"><path d="M 66.8125 73.324219 L 742.035156 73.324219 L 742.035156 733.597656 L 66.8125 733.597656 Z M 66.8125 73.324219 " clip-rule="nonzero"/></clipPath><clipPath id="e27c1bec98"><path d="M 728 121 L 749.570312 121 L 749.570312 686 L 728 686 Z M 728 121 " clip-rule="nonzero"/></clipPath><clipPath id="e7733de3dd"><path d="M 59.570312 121 L 81 121 L 81 686 L 59.570312 686 Z M 59.570312 121 " clip-rule="nonzero"/></clipPath><clipPath id="481b2372c5"><path d="M 122 58.605469 L 687 58.605469 L 687 80 L 122 80 Z M 122 58.605469 " clip-rule="nonzero"/></clipPath><clipPath id="74875e2f3f"><path d="M 122 727 L 687 727 L 687 748.605469 L 122 748.605469 Z M 122 727 " clip-rule="nonzero"/></clipPath><clipPath id="61fb5db47d"><path d="M 686 58.605469 L 749.570312 58.605469 L 749.570312 122 L 686 122 Z M 686 58.605469 " clip-rule="nonzero"/></clipPath><clipPath id="06e1d30e42"><path d="M 59.570312 58.605469 L 123 58.605469 L 123 122 L 59.570312 122 Z M 59.570312 58.605469 " clip-rule="nonzero"/></clipPath><clipPath id="9b7e135472"><path d="M 686 685 L 749.570312 685 L 749.570312 748.605469 L 686 748.605469 Z M 686 685 " clip-rule="nonzero"/></clipPath><clipPath id="d0c310da2f"><path d="M 59.570312 685 L 123 685 L 123 748.605469 L 59.570312 748.605469 Z M 59.570312 685 " clip-rule="nonzero"/></clipPath></defs><g clip-path="url(#0e2090ca41)"><g clip-path="url(#754e3bcd07)"><path fill="#ffffff" d="M 66.8125 73.324219 L 742.5625 73.324219 L 742.5625 733.597656 L 66.8125 733.597656 Z M 66.8125 73.324219 " fill-opacity="1" fill-rule="nonzero"/></g></g><g clip-path="url(#42c5bc74ac)"><path fill="#008000" d="M 66.8125 73.324219 L 742.5625 73.324219 L 742.5625 733.597656 L 66.8125 733.597656 Z M 66.8125 73.324219 " fill-opacity="1" fill-rule="nonzero"/></g><g clip-path="url(#e27c1bec98)"><path fill="#000000" d="M 728.667969 121.808594 L 749.277344 121.808594 L 749.277344 685.113281 L 728.667969 685.113281 Z M 728.667969 121.808594 " fill-opacity="1" fill-rule="nonzero"/></g><g clip-path="url(#e7733de3dd)"><path fill="#000000" d="M 59.570312 121.808594 L 80.179688 121.808594 L 80.179688 685.113281 L 59.570312 685.113281 Z M 59.570312 121.808594 " fill-opacity="1" fill-rule="nonzero"/></g><g clip-path="url(#481b2372c5)"><path fill="#000000" d="M 122.769531 58.605469 L 686.078125 58.605469 L 686.078125 79.214844 L 122.769531 79.214844 Z M 122.769531 58.605469 " fill-opacity="1" fill-rule="nonzero"/></g><g clip-path="url(#74875e2f3f)"><path fill="#000000" d="M 122.769531 727.703125 L 686.078125 727.703125 L 686.078125 748.3125 L 122.769531 748.3125 Z M 122.769531 727.703125 " fill-opacity="1" fill-rule="nonzero"/></g><g clip-path="url(#61fb5db47d)"><path fill="#000000" d="M 728.667969 79.214844 L 728.667969 121.808594 L 749.277344 121.808594 L 749.277344 58.605469 L 686.078125 58.605469 L 686.078125 79.214844 Z M 728.667969 79.214844 " fill-opacity="1" fill-rule="nonzero"/></g><g clip-path="url(#06e1d30e42)"><path fill="#000000" d="M 80.179688 79.214844 L 122.769531 79.214844 L 122.769531 58.605469 L 59.570312 58.605469 L 59.570312 121.808594 L 80.179688 121.808594 Z M 80.179688 79.214844 " fill-opacity="1" fill-rule="nonzero"/></g><g clip-path="url(#9b7e135472)"><path fill="#000000" d="M 728.667969 727.703125 L 686.078125 727.703125 L 686.078125 748.3125 L 749.277344 748.3125 L 749.277344 685.113281 L 728.667969 685.113281 Z M 728.667969 727.703125 " fill-opacity="1" fill-rule="nonzero"/></g><g clip-path="url(#d0c310da2f)"><path fill="#000000" d="M 80.179688 727.703125 L 80.179688 685.113281 L 59.570312 685.113281 L 59.570312 748.3125 L 122.769531 748.3125 L 122.769531 727.703125 Z M 80.179688 727.703125 " fill-opacity="1" fill-rule="nonzero"/></g><g fill="#000000" fill-opacity="1"><g transform="translate(119.458079, 643.824124)"><g><path d="M 549.5 -468.296875 L 161.703125 -26.59375 L 217 -26.59375 C 253.394531 -26.59375 283.84375 -29.742188 308.34375 -36.046875 C 332.84375 -42.347656 355.476562 -52.265625 376.25 -65.796875 C 397.019531 -79.328125 422.101562 -99.628906 451.5 -126.703125 L 463.40625 -126.703125 L 415.09375 0 L 18.90625 0 L 18.90625 -13.296875 L 408.09375 -454.296875 L 324.09375 -454.296875 C 277.425781 -454.296875 239.976562 -446.828125 211.75 -431.890625 C 183.519531 -416.960938 159.835938 -395.03125 140.703125 -366.09375 L 128.09375 -366.09375 L 165.203125 -480.90625 L 553 -480.90625 Z M 549.5 -468.296875 "/></g></g></g></svg>
